<svg width="33" height="32" viewBox="0 0 33 32" fill="none" xmlns="http://www.w3.org/2000/svg">
<g filter="url(#filter0_d_175_61)">
<path d="M26.9268 2.81866C26.6913 2.70542 26.4263 2.65337 26.1607 2.66818C25.8951 2.68299 25.6391 2.76409 25.4203 2.90266L6.46202 14.9027C6.26887 15.0259 6.11114 15.19 6.00222 15.3809C5.8933 15.5718 5.83643 15.784 5.83643 15.9993C5.83643 16.2147 5.8933 16.4268 6.00222 16.6178C6.11114 16.8087 6.26887 16.9728 6.46202 17.096L25.4203 29.096C25.6391 29.2344 25.8952 29.3155 26.1607 29.3304C26.4263 29.3453 26.6912 29.2935 26.9269 29.1806C27.1626 29.0677 27.36 28.898 27.4978 28.6899C27.6355 28.4818 27.7084 28.2432 27.7085 28V4C27.7085 3.75661 27.6357 3.51786 27.4979 3.30962C27.3601 3.10138 27.1626 2.93159 26.9268 2.81866ZM24.7918 25.4547L9.8541 16L24.7918 6.54533V25.4547Z" fill="#ed128f"/>
</g>
<defs>
<filter id="filter0_d_175_61" x="0.836426" y="0.66571" width="31.8721" height="36.6672" filterUnits="userSpaceOnUse" color-interpolation-filters="sRGB">
<feFlood flood-opacity="0" result="BackgroundImageFix"/>
<feColorMatrix in="SourceAlpha" type="matrix" values="0 0 0 0 0 0 0 0 0 0 0 0 0 0 0 0 0 0 127 0" result="hardAlpha"/>
<feOffset dy="3"/>
<feGaussianBlur stdDeviation="2.5"/>
<feComposite in2="hardAlpha" operator="out"/>
<feColorMatrix type="matrix" values="0 0 0 0 0 0 0 0 0 0 0 0 0 0 0 0 0 0 0.2 0"/>
<feBlend mode="normal" in2="BackgroundImageFix" result="effect1_dropShadow_175_61"/>
<feBlend mode="normal" in="SourceGraphic" in2="effect1_dropShadow_175_61" result="shape"/>
</filter>
</defs>
</svg>
