<svg width="30" height="28" viewBox="0 0 30 28" fill="none" xmlns="http://www.w3.org/2000/svg">
<path d="M29.1569 8.60001C29.1547 8.50375 29.1409 8.40803 29.1158 8.31467C29.1059 8.28134 29.0861 8.24934 29.0733 8.21601C29.0436 8.14001 29.0167 8.06534 28.9742 7.99601C28.9515 7.96001 28.9203 7.93068 28.8934 7.89601C28.8481 7.83601 28.8042 7.77467 28.7489 7.72267C28.7163 7.69334 28.6738 7.66934 28.6384 7.64134C28.5832 7.59868 28.5322 7.55201 28.4684 7.51601C28.4627 7.51201 28.4557 7.51201 28.4486 7.50801L28.4372 7.50001L15.717 0.846677C15.5068 0.736979 15.2704 0.679311 15.0301 0.679078C14.7897 0.678845 14.5533 0.736054 14.3428 0.845344L1.56308 7.49868C1.55883 7.50268 1.55458 7.50801 1.5475 7.51201L1.53333 7.51734C1.48375 7.54401 1.44691 7.58267 1.40016 7.61468C1.34916 7.65068 1.29533 7.68268 1.25 7.72401C1.2075 7.76534 1.17491 7.81334 1.13808 7.86001C1.09983 7.90667 1.05733 7.94801 1.02616 7.99868C0.989329 8.05601 0.969496 8.12134 0.942579 8.18401C0.922746 8.22801 0.897246 8.26934 0.884496 8.31734C0.860029 8.40899 0.846254 8.50288 0.843413 8.59734C0.841996 8.62001 0.833496 8.64001 0.833496 8.66401V19.3333C0.833496 19.8173 1.11258 20.264 1.56308 20.4987L14.2819 27.148L14.2833 27.1493L14.2862 27.1507L14.3145 27.1653C14.3754 27.1973 14.442 27.2147 14.5057 27.2373C14.5511 27.2547 14.595 27.2773 14.6432 27.2893C14.8783 27.3464 15.1249 27.3464 15.36 27.2893C15.4067 27.2773 15.4507 27.2547 15.4974 27.2373C15.5612 27.2147 15.6277 27.1987 15.6887 27.1653L15.717 27.1507L15.7198 27.1493L15.7212 27.148L28.4401 20.4987C28.8877 20.264 29.1668 19.8173 29.1668 19.3333V8.66401C29.1668 8.64134 29.1583 8.62267 29.1569 8.60001ZM14.9605 13.8293L5.16566 8.67334L9.0785 6.63601L18.76 11.8427L14.9605 13.8293ZM15.0285 3.53734L24.8332 8.66668L21.6542 10.3293L11.9784 5.12534L15.0285 3.53734ZM16.4168 23.7347L16.4197 16.1627L20.6668 13.9253V18L23.5002 16.6667V12.4333L26.3335 10.9413V18.548L16.4168 23.7347Z" fill="#D01010"/>
</svg>
