<svg width="33" height="30" viewBox="0 0 33 30" fill="none" xmlns="http://www.w3.org/2000/svg">
<g filter="url(#filter0_d_175_63)">
<path d="M5.8219 26.5941C6.06995 26.6981 6.34845 26.7458 6.62751 26.7318C6.90658 26.7179 7.17566 26.6429 7.40589 26.5149L27.3399 15.385C27.5436 15.2712 27.71 15.1193 27.825 14.9422C27.9399 14.7652 28 14.5683 28 14.3685C28 14.1686 27.9399 13.9717 27.825 13.7947C27.71 13.6177 27.5436 13.4657 27.3399 13.3519L7.40589 2.22197C7.17609 2.09268 6.9067 2.01676 6.62708 2.00247C6.34745 1.98818 6.06833 2.03608 5.82014 2.14095C5.57195 2.24581 5.36423 2.40362 5.21961 2.59716C5.07499 2.79069 4.99903 3.01254 5.00001 3.23851V25.4984C4.99996 25.7241 5.07653 25.9456 5.22141 26.1387C5.36629 26.3319 5.57396 26.4894 5.8219 26.5941ZM8.06677 5.59929L23.7732 14.3685L8.06677 23.1376V5.59929Z" fill="#D01010"/>
</g>
<defs>
<filter id="filter0_d_175_63" x="0" y="0" width="33" height="34.7342" filterUnits="userSpaceOnUse" color-interpolation-filters="sRGB">
<feFlood flood-opacity="0" result="BackgroundImageFix"/>
<feColorMatrix in="SourceAlpha" type="matrix" values="0 0 0 0 0 0 0 0 0 0 0 0 0 0 0 0 0 0 127 0" result="hardAlpha"/>
<feOffset dy="3"/>
<feGaussianBlur stdDeviation="2.5"/>
<feComposite in2="hardAlpha" operator="out"/>
<feColorMatrix type="matrix" values="0 0 0 0 0 0 0 0 0 0 0 0 0 0 0 0 0 0 0.2 0"/>
<feBlend mode="normal" in2="BackgroundImageFix" result="effect1_dropShadow_175_63"/>
<feBlend mode="normal" in="SourceGraphic" in2="effect1_dropShadow_175_63" result="shape"/>
</filter>
</defs>
</svg>
