<svg width="27" height="28" viewBox="0 0 27 28" fill="none" xmlns="http://www.w3.org/2000/svg">
<path d="M24.4375 2.66666L22.25 0.666656L20.0625 2.66666L17.875 0.666656L15.6875 2.66666L13.5 0.666656L11.3125 2.66666L9.125 0.666656L6.9375 2.66666L4.75 0.666656L2.5625 2.66666L0.375 0.666656V27.3333L2.5625 25.3333L4.75 27.3333L6.9375 25.3333L9.125 27.3333L11.3125 25.3333L13.5 27.3333L15.6875 25.3333L17.875 27.3333L20.0625 25.3333L22.25 27.3333L24.4375 25.3333L26.625 27.3333V0.666656L24.4375 2.66666ZM23.7083 23.4533H3.29167V4.54666H23.7083V23.4533ZM4.75 18H22.25V20.6667H4.75V18ZM4.75 12.6667H22.25V15.3333H4.75V12.6667ZM4.75 7.33332H22.25V9.99999H4.75V7.33332Z" fill="#D01010"/>
</svg>
