<svg width="35" height="32" viewBox="0 0 35 32" fill="none" xmlns="http://www.w3.org/2000/svg">
<path d="M5.83317 26.6667H8.74984V13.3333C8.74984 12.9797 8.90348 12.6406 9.17697 12.3905C9.45046 12.1405 9.8214 12 10.2082 12H27.7082V9.33332C27.7082 8.9797 27.5545 8.64056 27.281 8.39051C27.0075 8.14047 26.6366 7.99999 26.2498 7.99999H21.8005C21.433 5.00799 18.6811 2.66666 15.3123 2.66666C11.9436 2.66666 9.19171 5.00799 8.82421 7.99999H4.37484C3.98806 7.99999 3.61713 8.14047 3.34364 8.39051C3.07015 8.64056 2.9165 8.9797 2.9165 9.33332V24C2.9165 24.7072 3.22379 25.3855 3.77078 25.8856C4.31776 26.3857 5.05962 26.6667 5.83317 26.6667ZM15.3123 5.33332C17.0725 5.33332 18.5469 6.47999 18.8853 7.99999H11.7394C12.0778 6.47999 13.5521 5.33332 15.3123 5.33332Z" fill="#D01010"/>
<path d="M30.6248 14.6667H13.1248C12.7381 14.6667 12.3671 14.8071 12.0936 15.0572C11.8201 15.3072 11.6665 15.6464 11.6665 16V26.6667C11.6665 27.3739 11.9738 28.0522 12.5208 28.5523C13.0678 29.0524 13.8096 29.3333 14.5832 29.3333H29.1665C29.9401 29.3333 30.6819 29.0524 31.2289 28.5523C31.7759 28.0522 32.0832 27.3739 32.0832 26.6667V16C32.0832 15.6464 31.9295 15.3072 31.656 15.0572C31.3825 14.8071 31.0116 14.6667 30.6248 14.6667ZM21.8748 24C17.8542 24 14.5832 21.0093 14.5832 17.3333H17.4998C17.4998 19.5387 19.4628 21.3333 21.8748 21.3333C24.2869 21.3333 26.2498 19.5387 26.2498 17.3333H29.1665C29.1665 21.0093 25.8955 24 21.8748 24Z" fill="#D01010"/>
</svg>
