<svg width="24" height="24" viewBox="0 0 24 24" fill="none" xmlns="http://www.w3.org/2000/svg">
<path d="M12 2C6.477 2 2 6.477 2 12C2 17.523 6.477 22 12 22C17.523 22 22 17.523 22 12C22 6.477 17.523 2 12 2Z" fill="url(#paint0_linear_175_739)"/>
<path d="M13.3533 14.6509H15.9413L16.3478 12.0219H13.3533V10.5849C13.3533 9.49295 13.7103 8.52445 14.7318 8.52445H16.3733V6.23045C16.0848 6.19145 15.4748 6.10645 14.3223 6.10645C11.9153 6.10645 10.5043 7.37745 10.5043 10.2734V12.0224H8.02979V14.6514H10.5038V21.8774C10.9938 21.9504 11.4903 22.0004 11.9998 22.0004C12.4603 22.0004 12.9098 21.9584 13.3533 21.8984V14.6509Z" fill="white"/>
<defs>
<linearGradient id="paint0_linear_175_739" x1="4.9965" y1="4.9965" x2="20.3075" y2="20.3075" gradientUnits="userSpaceOnUse">
<stop stop-color="#2AA4F4"/>
<stop offset="1" stop-color="#007AD9"/>
</linearGradient>
</defs>
</svg>
