<svg width="24" height="24" viewBox="0 0 24 24" fill="none" xmlns="http://www.w3.org/2000/svg">
<path d="M20.8352 6.74C20.6352 6.87 20.3502 6.99 20.2302 7.125C20.1852 7.17 20.1602 7.22 20.1702 7.27V7.785L20.0202 8.29L19.8702 8.79L19.7052 9.34L19.3652 10.465L19.0352 11.575L18.7852 12.41C18.7852 12.54 18.7802 12.67 18.7702 12.795C18.7352 13.275 18.6352 13.735 18.4752 14.165C18.3802 14.43 18.2652 14.685 18.1252 14.925C18.0752 15.02 18.0152 15.115 17.9552 15.205C17.7552 15.52 17.5152 15.81 17.2502 16.065C17.0452 16.27 16.8202 16.46 16.5752 16.62C16.5752 16.62 16.5752 16.62 16.5702 16.62C16.5302 16.655 16.4852 16.685 16.4352 16.71C16.2802 16.815 16.1152 16.905 15.9452 16.985C15.8302 17.045 15.7152 17.095 15.5952 17.14C15.5702 17.155 15.5402 17.165 15.5152 17.175C15.2302 17.31 14.9002 17.4 14.5702 17.445C14.5502 17.45 14.5352 17.45 14.5152 17.455C14.3152 17.49 14.1202 17.52 13.9202 17.535C13.8302 17.545 13.7352 17.55 13.6452 17.55L13.2902 17.53L11.5802 17.44C11.5802 17.435 11.5752 17.44 11.5752 17.44L10.7152 17.395C10.6502 17.395 10.5802 17.395 10.5152 17.39C10.2452 17.38 9.9852 17.35 9.7252 17.295C9.7202 17.295 9.7202 17.295 9.7202 17.295C9.2452 17.205 8.7902 17.045 8.3652 16.83C8.1302 16.71 7.9002 16.575 7.6852 16.42C7.5952 16.355 7.5102 16.285 7.4252 16.21C7.1852 16.01 6.9702 15.795 6.7702 15.575C6.7402 15.545 6.7152 15.515 6.6902 15.485C6.6602 15.455 6.6302 15.42 6.6052 15.39C6.4152 15.15 6.2552 14.905 6.1252 14.645C6.0052 14.415 5.9102 14.17 5.8352 13.9C5.8052 13.805 5.7802 13.715 5.7602 13.615C5.7552 13.61 5.7502 13.6 5.7502 13.59C5.7002 13.385 5.6552 13.17 5.6302 12.955C5.6002 12.79 5.5852 12.625 5.5852 12.455C5.5752 12.39 5.5752 12.32 5.5752 12.255L6.5302 10.78L7.4652 9.34L7.8902 8.685L8.2752 8.095L8.4052 7.89V7.375C8.4152 7.26 8.4202 7.14 8.4152 7.03C8.4102 6.68 8.3402 6.34 8.2252 6.015C8.1152 5.67 7.9602 5.345 7.8002 5.045C7.6102 4.7 7.4102 4.39 7.2452 4.11C7.0002 3.7 6.8302 3.365 6.8752 3.13C7.2352 3.045 7.6152 3 8.0002 3H16.0002C18.0902 3 19.8902 4.3 20.6352 6.13C20.7152 6.325 20.7852 6.53 20.8352 6.74Z" fill="#304FFE"/>
<path d="M21.0001 8V8.135L20.3101 8.535L19.8701 8.79L19.3851 9.07L18.4151 9.635L17.4651 10.185L16.4951 10.745L16.1101 10.97C16.1101 11.21 16.0501 11.43 15.9401 11.63C15.7851 11.92 15.5251 12.16 15.1951 12.365C14.8601 12.57 14.4501 12.735 13.9901 12.855C13.9901 12.855 13.9901 12.85 13.9851 12.855C12.2051 13.315 9.77506 13.105 8.59506 12.225C8.26506 11.98 8.03506 11.68 7.93506 11.335C7.90506 11.22 7.89006 11.095 7.89006 10.97V7.375C7.89506 7.3 7.84506 7.225 7.75506 7.15C7.48506 6.935 6.85006 6.73 6.14006 6.525C5.58506 6.37 4.99006 6.215 4.49006 6.065C4.09506 5.945 3.76006 5.825 3.56006 5.71C3.65006 5.535 3.75506 5.36 3.86506 5.195C4.56506 4.17 5.63506 3.415 6.87506 3.13C7.23506 3.045 7.61506 3 8.00006 3H13.4001C16.0851 3.47 18.5601 4.565 20.6351 6.13C20.7151 6.325 20.7851 6.53 20.8351 6.74C20.9251 7.07 20.9801 7.41 20.9951 7.765C21.0001 7.84 21.0001 7.92 21.0001 8Z" fill="#4928F4"/>
<path d="M21 8.00027V10.2053L20.89 10.5453L20.515 11.7103L20.125 12.9103L19.92 13.5503L19.73 14.1453L19.545 14.7103L19.365 15.2703L19.27 15.5653L19.145 15.9553C19.145 16.3353 19.135 16.6703 19.11 16.9553C19.105 16.9853 19.1 17.0153 19.1 17.0453C19.07 17.3103 19.03 17.5353 18.965 17.7253C18.96 17.7553 18.95 17.7853 18.94 17.8103C18.81 18.1703 18.615 18.4003 18.325 18.5503C18.255 18.5903 18.175 18.6203 18.09 18.6503C17.825 18.7403 17.49 18.7853 17.08 18.8103C16.78 18.8303 16.435 18.8353 16.045 18.8353H15.7L15.105 18.8103L15 18.8053L13.915 18.7603L12.815 18.7153L9.18996 18.5653L8.24996 18.5253H8.11996C7.72996 18.5203 7.39496 18.4953 7.10496 18.4553C6.68496 18.3903 6.35996 18.2803 6.11496 18.1153C5.76496 17.8903 5.55996 17.5603 5.43996 17.1003C5.40996 16.9903 5.38496 16.8753 5.36996 16.7503C5.31996 16.4603 5.29496 16.1253 5.27996 15.7503C5.27996 15.6753 5.27996 15.6003 5.27496 15.5203C5.26996 15.5153 5.27496 15.5153 5.27496 15.5153V15.2253C5.26996 15.0803 5.26996 14.9303 5.26996 14.7753L5.29496 13.9703L5.30996 13.3953L5.32996 12.7253V12.6303L5.36496 11.4003L5.39996 10.1703L5.43496 9.01527L5.46496 7.88027L5.47496 7.58027C5.47496 7.42527 4.94996 7.33527 4.36496 7.26027C3.89996 7.20027 3.38996 7.14527 3.08496 7.07527C3.10996 6.96027 3.13496 6.84527 3.16496 6.73527C3.25496 6.37527 3.38996 6.03527 3.55996 5.71027C3.64996 5.53527 3.75496 5.36027 3.86496 5.19527C4.94496 4.72027 6.06996 4.35027 7.24496 4.11027C8.27496 3.89527 9.34996 3.78027 10.46 3.78027C14.14 3.78027 17.54 5.02527 20.23 7.12527C20.49 7.32527 20.745 7.54027 20.995 7.76527C21 7.84027 21 7.92027 21 8.00027Z" fill="#6200EA"/>
<path d="M21 9.18469V11.4547L20.725 11.9847L20.2 13.0097L19.92 13.5497L19.665 14.0447L19.555 14.2597C19.555 14.4147 19.555 14.5647 19.545 14.7097C19.545 14.9247 19.535 15.1297 19.52 15.3197C19.5 15.5447 19.47 15.7497 19.44 15.9397C19.365 16.3347 19.26 16.6747 19.11 16.9547C19.09 16.9897 19.07 17.0247 19.05 17.0547C18.995 17.1447 18.93 17.2297 18.86 17.3097C18.77 17.4197 18.67 17.5147 18.555 17.5947C18.385 17.7247 18.185 17.8297 17.955 17.9097C17.67 18.0147 17.34 18.0847 16.95 18.1247C16.695 18.1497 16.415 18.1647 16.11 18.1647L15.9 18.1747L14.86 18.2347H14.855L13.75 18.2997L12.625 18.3647L11.075 18.4547L9.19 18.5647L8.915 18.5797C8.66 18.5797 8.42 18.5647 8.19 18.5347C8.165 18.5297 8.145 18.5247 8.12 18.5247C7.78 18.4697 7.47 18.3797 7.19 18.2547C6.85 18.1047 6.555 17.9047 6.305 17.6647C6.085 17.4497 5.895 17.2047 5.74 16.9297C5.705 16.8647 5.67 16.8047 5.64 16.7347C5.49 16.4397 5.37 16.1097 5.28 15.7497C5.265 15.6897 5.25 15.6247 5.24 15.5597C5.21 15.4447 5.185 15.3247 5.17 15.1997C5.115 14.8797 5.085 14.5397 5.07 14.1847V14.1797C5.065 14.0347 5.06 13.8947 5.06 13.7447L4.815 13.1597L4.78 13.0697L4.75 12.9947L4.375 12.0997L4.315 11.9547L3.955 11.0897L3.555 10.1247C3.555 10.1247 3.555 10.1247 3.55 10.1247L3.145 9.14969L3 8.79469V7.99969C3 7.68469 3.03 7.37469 3.085 7.07469C3.11 6.95969 3.135 6.84469 3.165 6.73469C3.59 6.48969 4.035 6.26469 4.49 6.06469C5.53 5.59969 6.645 5.25469 7.8 5.04469C8.66 4.88969 9.555 4.80469 10.46 4.80469C14.115 4.80469 17.43 6.12969 20.02 8.28969C20.12 8.36969 20.215 8.44969 20.31 8.53469C20.545 8.73969 20.775 8.95469 21 9.18469Z" fill="#673AB7"/>
<path d="M21 10.675V13.245L20.715 13.84L20.175 14.965L20.17 14.98C20.17 15.195 20.16 15.39 20.145 15.565C20.095 16.14 19.955 16.505 19.725 16.73C19.56 16.9 19.355 16.995 19.1 17.045C19.085 17.05 19.065 17.05 19.05 17.055C18.97 17.07 18.885 17.08 18.795 17.08C18.485 17.11 18.12 17.09 17.7 17.06C17.655 17.06 17.605 17.055 17.555 17.05C17.25 17.03 16.925 17.01 16.565 16.995C16.37 16.99 16.165 16.985 15.955 16.985H15.945L15.44 17.025H15.435L14.3 17.105L13.005 17.205L12.815 17.22L11.3 17.33L10.515 17.39L9.74 17.445C9.605 17.445 9.475 17.445 9.345 17.44C9.345 17.44 9.34 17.435 9.34 17.44C8.775 17.43 8.27 17.395 7.82 17.31C7.405 17.24 7.04 17.13 6.73 16.965C6.41 16.81 6.145 16.59 5.93 16.31C5.725 16.035 5.575 15.69 5.48 15.275C5.48 15.27 5.48 15.27 5.48 15.27C5.41 14.935 5.37 14.545 5.37 14.105L5.295 13.97L4.85 13.175L4.785 13.065L4.75 12.995L4.285 12.17L4.055 11.755L3.765 11.24L3.265 10.345L3 9.87496V8.03496C3.44 7.74496 3.895 7.48996 4.365 7.25996C4.935 6.96996 5.525 6.72496 6.14 6.52496C6.81 6.30496 7.51 6.12996 8.225 6.01496C8.95 5.89496 9.695 5.83496 10.46 5.83496C13.86 5.83496 16.98 7.04996 19.385 9.06996C19.495 9.15496 19.6 9.24996 19.705 9.33996C20.125 9.71496 20.525 10.12 20.89 10.545C20.93 10.59 20.97 10.63 21 10.675Z" fill="#8E24AA"/>
<path d="M21 12.3554V15.9704C20.88 15.9004 20.715 15.8154 20.51 15.7254C20.4 15.6704 20.275 15.6154 20.145 15.5654C19.955 15.4804 19.75 15.4003 19.52 15.3203C19.47 15.3003 19.42 15.2854 19.365 15.2704C19.275 15.2354 19.18 15.2054 19.085 15.1754C18.79 15.0854 18.465 15.0004 18.125 14.9254C17.995 14.9004 17.86 14.8753 17.725 14.8554C17.29 14.7804 16.825 14.7354 16.34 14.7304C16.3 14.7253 16.255 14.7254 16.215 14.7254L14.93 14.7354L13.18 14.7454H13.175L9.43 14.7754C8.24 14.7754 7.51 15.0604 7.07 15.1754C7.07 15.1754 7.065 15.1754 7.065 15.1804C6.6 15.3004 6.455 15.2254 6.415 14.4104C6.405 14.1854 6.4 13.8954 6.4 13.5404L6.12 13.3254L5.63 12.9554L5.33 12.7254L5.27 12.6804L4.44 12.0504L4.315 11.9554L4.055 11.7554L3.575 11.3954L3 10.9554V9.25535C3.05 9.21535 3.095 9.18035 3.145 9.15035C3.87 8.65035 4.645 8.22535 5.465 7.88035C6.195 7.57035 6.965 7.32535 7.755 7.15035C7.97 7.10535 8.19 7.06035 8.415 7.03035C9.08 6.91535 9.765 6.86035 10.46 6.86035C13.465 6.86035 16.225 7.90535 18.415 9.63535C18.745 9.89535 19.065 10.1704 19.365 10.4654C19.775 10.8554 20.16 11.2704 20.515 11.7104C20.585 11.8004 20.655 11.8904 20.725 11.9854C20.82 12.1054 20.91 12.2304 21 12.3554Z" fill="#C2185B"/>
<path d="M21 14.3596V15.9996C21 16.3246 20.97 16.6446 20.91 16.9546C20.82 17.4146 20.665 17.8546 20.455 18.2646C20.345 18.2896 20.22 18.2896 20.08 18.2696C19.765 18.2146 19.395 18.0496 18.995 17.8346C18.975 17.8296 18.955 17.8196 18.94 17.8096C18.815 17.7446 18.685 17.6746 18.555 17.5946C18.29 17.4496 18.01 17.2896 17.73 17.1396C17.67 17.1096 17.61 17.0796 17.555 17.0496C17.235 16.8846 16.905 16.7346 16.575 16.6196C16.575 16.6196 16.575 16.6196 16.57 16.6196C16.5 16.5947 16.425 16.5696 16.35 16.5496C16.065 16.4696 15.775 16.4196 15.495 16.4196L14.945 16.2596L12.51 15.5546C12.51 15.5546 12.51 15.5546 12.505 15.5546L11.01 15.1196H11.005L10.355 14.9296C8.475 14.9296 7.32 15.7296 6.76 15.4246C6.54 15.3096 6.41 15.0196 6.365 14.4496C6.35 14.2896 6.345 14.1096 6.345 13.8996L5.76 13.6146L5.735 13.6046H5.73L5.31 13.3946L4.85 13.1746L4.815 13.1596L4.73 13.1146L3.75 12.6396L3 12.2746V10.5596C3.085 10.4846 3.175 10.4146 3.265 10.3446C3.36 10.2696 3.455 10.1996 3.55 10.1246C3.555 10.1246 3.555 10.1246 3.555 10.1246C4.145 9.69965 4.77 9.32465 5.435 9.01465C6.21 8.64465 7.035 8.35965 7.89 8.17465C8.015 8.14465 8.145 8.11465 8.275 8.09465C8.985 7.95965 9.715 7.88965 10.46 7.88965C13.095 7.88965 15.515 8.74465 17.465 10.1846C18.03 10.6046 18.555 11.0696 19.035 11.5746C19.43 11.9896 19.795 12.4396 20.125 12.9096C20.15 12.9446 20.175 12.9796 20.2 13.0096C20.385 13.2796 20.555 13.5546 20.715 13.8396C20.82 14.0096 20.91 14.1846 21 14.3596Z" fill="#D81B60"/>
<path d="M20.91 16.955C20.82 17.415 20.665 17.855 20.455 18.265C20.36 18.45 20.255 18.625 20.14 18.795C20.07 18.9 19.995 19 19.92 19.095C19.74 19.025 19.475 18.925 19.15 18.815C19.15 18.815 19.15 18.815 19.15 18.81C18.905 18.725 18.625 18.635 18.325 18.55C18.24 18.525 18.155 18.5 18.065 18.475C17.71 18.38 17.34 18.295 16.98 18.245C16.68 18.195 16.385 18.165 16.11 18.165L15.88 18.1H15.875L14.665 17.75L13.92 17.535L13.09 17.295H13.085L12.815 17.22L9.55 16.28L8.61 16.01L7.91 15.845L6.77 15.575L6.63 15.54C6.63 15.54 6.63 15.54 6.625 15.54L5.48 15.275C5.48 15.27 5.48 15.27 5.48 15.27L5.275 15.225L5.17 15.2L4.335 15.005L4.24 14.98L3.53 14.395L3 13.95V11.91C3.185 11.73 3.375 11.56 3.575 11.395C3.635 11.34 3.7 11.29 3.765 11.24C3.825 11.19 3.89 11.14 3.955 11.09C4.41 10.745 4.89 10.435 5.4 10.17C6.05 9.82004 6.74 9.54004 7.465 9.34004C7.605 9.29504 7.745 9.25504 7.89 9.22504C8.71 9.02004 9.57 8.91504 10.46 8.91504C12.695 8.91504 14.775 9.59004 16.495 10.745C17.35 11.32 18.12 12.01 18.77 12.795C19.1 13.19 19.4 13.605 19.665 14.045C19.69 14.08 19.71 14.11 19.73 14.145C19.89 14.41 20.04 14.685 20.175 14.965C20.3 15.215 20.41 15.465 20.51 15.725C20.67 16.125 20.8 16.535 20.91 16.955Z" fill="#F50057"/>
<path d="M20.14 18.7953C20.07 18.9003 19.995 19.0003 19.92 19.0953C19.7 19.3703 19.46 19.6203 19.19 19.8403C18.955 20.0353 18.705 20.2103 18.44 20.3603C18.34 20.3353 18.24 20.3053 18.135 20.2653C17.805 20.1503 17.46 19.9603 17.14 19.7603C16.66 19.4553 16.245 19.1253 16.06 18.9753C15.99 18.9153 15.955 18.8853 15.955 18.8853L15.105 18.8103L15 18.8003L13.9 18.7053L12.76 18.6053L11.075 18.4553L8.405 18.2203L8.395 18.2153L7.455 17.7603L6.505 17.3003L5.74 16.9303L5.575 16.8503L5.37 16.7503L4.66 16.4053L3.715 15.9503L3.42 15.8053L3 15.6753V13.4403C3.235 13.1603 3.485 12.8953 3.75 12.6403C3.92 12.4803 4.1 12.3203 4.285 12.1703C4.315 12.1453 4.345 12.1203 4.375 12.1003C4.395 12.0753 4.42 12.0603 4.44 12.0503C4.735 11.8103 5.045 11.5953 5.365 11.4003C5.735 11.1653 6.125 10.9553 6.53 10.7803C6.965 10.5853 7.42 10.4203 7.89 10.2953C8.705 10.0653 9.57 9.94531 10.46 9.94531C12.5 9.94531 14.385 10.5653 15.94 11.6303C16.935 12.3103 17.795 13.1703 18.475 14.1653C18.7 14.4853 18.9 14.8253 19.085 15.1753C19.15 15.3053 19.215 15.4353 19.27 15.5653C19.33 15.6903 19.385 15.8153 19.44 15.9403C19.545 16.2003 19.64 16.4603 19.725 16.7303C19.885 17.2303 20.005 17.7403 20.08 18.2703C20.105 18.4453 20.125 18.6203 20.14 18.7953Z" fill="#FF1744"/>
<path d="M19.195 19.7097C19.195 19.7497 19.195 19.7947 19.19 19.8397C18.955 20.0347 18.705 20.2097 18.44 20.3597C18.33 20.4197 18.22 20.4797 18.105 20.5297C17.99 20.5847 17.875 20.6347 17.755 20.6797C17.585 20.5897 17.355 20.4797 17.11 20.3747C16.765 20.2197 16.39 20.0797 16.1 20.0347C16.03 20.0197 15.965 20.0147 15.905 20.0147L15.085 19.9097H15.075L14.055 19.7747L13.025 19.6397L12.545 19.5797L8.765 19.0897C8.52 19.0897 8.26 19.0747 7.99 19.0397C7.66 19.0097 7.315 18.9597 6.97 18.8897C6.63 18.8297 6.285 18.7497 5.955 18.6647C5.61 18.5847 5.27 18.4897 4.955 18.3997C4.59 18.2897 4.25 18.1847 3.965 18.0897C3.73 18.0147 3.53 17.9447 3.375 17.8897C3.285 17.6747 3.21 17.4497 3.155 17.2197C3.05 16.8297 3 16.4197 3 15.9997V15.1647C3.16 14.8997 3.335 14.6397 3.53 14.3947C3.885 13.9247 4.29 13.4947 4.73 13.1147C4.745 13.0947 4.765 13.0797 4.78 13.0697L4.785 13.0647C4.94 12.9247 5.1 12.7997 5.27 12.6797C5.29 12.6597 5.31 12.6447 5.33 12.6297C5.41 12.5697 5.495 12.5097 5.585 12.4547C6.3 11.9697 7.09 11.5897 7.935 11.3347C8.735 11.0947 9.58 10.9697 10.46 10.9697C12.205 10.9697 13.835 11.4847 15.195 12.3647C16.2 13.0097 17.065 13.8597 17.725 14.8547C17.805 14.9697 17.88 15.0847 17.955 15.2047C18.3 15.7897 18.585 16.4197 18.795 17.0797C18.82 17.1547 18.84 17.2297 18.86 17.3097C18.9 17.4447 18.935 17.5847 18.965 17.7247C18.975 17.7597 18.985 17.7947 18.995 17.8347C19.065 18.1497 19.115 18.4797 19.15 18.8097C19.15 18.8147 19.15 18.8147 19.15 18.8147C19.18 19.1097 19.195 19.4097 19.195 19.7097Z" fill="#FF5722"/>
<path d="M18.1648 19.71C18.1648 19.885 18.1548 20.075 18.1348 20.265C18.1248 20.355 18.1148 20.445 18.1048 20.53C17.9898 20.585 17.8748 20.635 17.7548 20.68C17.5298 20.765 17.2998 20.835 17.0648 20.885C16.9048 20.92 16.7398 20.95 16.5748 20.965H16.5698C16.4148 20.87 16.2348 20.755 16.0498 20.625C15.7148 20.39 15.3648 20.125 15.0848 19.91C15.0798 19.905 15.0798 19.905 15.0748 19.9C14.7798 19.675 14.5698 19.505 14.5698 19.505L14.0398 19.525L13.0198 19.56L12.5448 19.58L10.6348 19.65L9.01979 19.71C8.91479 19.715 8.78979 19.715 8.63479 19.71H8.62979C8.41979 19.705 8.16978 19.69 7.89478 19.665C7.57478 19.64 7.22478 19.61 6.86978 19.575C6.52478 19.535 6.17479 19.495 5.83979 19.455C5.46979 19.415 5.11979 19.37 4.81979 19.33C4.58479 19.3 4.37979 19.275 4.21479 19.255C4.07479 19.095 3.94979 18.93 3.82979 18.75C3.64979 18.48 3.49479 18.195 3.37479 17.89C3.28479 17.675 3.20979 17.45 3.15479 17.22C3.29979 16.775 3.48979 16.355 3.71479 15.95C3.89479 15.62 4.10479 15.305 4.33479 15.005C4.55979 14.71 4.80479 14.435 5.06979 14.185V14.18C5.14479 14.105 5.21979 14.035 5.29479 13.97C5.43479 13.84 5.57979 13.72 5.72978 13.605H5.73479C5.73979 13.595 5.74479 13.595 5.74978 13.59C5.86979 13.495 5.99478 13.41 6.11978 13.325C6.85978 12.82 7.69479 12.445 8.59479 12.225C9.18979 12.08 9.81479 12 10.4598 12C11.7298 12 12.9298 12.305 13.9848 12.855H13.9898C14.8948 13.32 15.6948 13.96 16.3398 14.73C16.6948 15.14 16.9998 15.59 17.2498 16.065C17.4248 16.385 17.5748 16.72 17.6998 17.06C17.7098 17.09 17.7198 17.115 17.7298 17.14C17.8148 17.39 17.8898 17.65 17.9548 17.91C17.9998 18.095 18.0348 18.285 18.0648 18.475C18.0748 18.535 18.0848 18.59 18.0898 18.65C18.1398 18.995 18.1648 19.35 18.1648 19.71Z" fill="#FF6F00"/>
<path d="M17.1401 19.7103V19.7603C17.1401 19.9303 17.1251 20.1453 17.1101 20.3753C17.0951 20.5453 17.0801 20.7203 17.0651 20.8853C16.9051 20.9203 16.7401 20.9503 16.5751 20.9653H16.5701C16.3801 20.9903 16.1951 21.0003 16.0001 21.0003H15.1251L14.9351 20.9453L13.9501 20.6453L12.9501 20.3453L10.6351 19.6503L9.63508 19.3503C9.63508 19.3503 9.22008 19.5153 8.63508 19.7103H8.63008C8.40508 19.7853 8.16008 19.8653 7.90008 19.9453C7.57508 20.0403 7.23008 20.1353 6.89008 20.2103C6.54008 20.2903 6.19508 20.3503 5.88508 20.3753C5.79008 20.3853 5.69508 20.3903 5.61008 20.3903C5.33008 20.2353 5.06008 20.0503 4.81508 19.8453C4.60008 19.6653 4.40008 19.4703 4.21508 19.2553C4.07508 19.0953 3.95008 18.9303 3.83008 18.7503C3.86508 18.5253 3.90508 18.3053 3.96508 18.0903C4.11508 17.4953 4.35008 16.9253 4.66008 16.4053C4.83008 16.1103 5.02008 15.8253 5.24008 15.5603C5.24508 15.5453 5.26008 15.5303 5.27508 15.5203C5.27008 15.5153 5.27508 15.5153 5.27508 15.5153C5.34008 15.4303 5.41008 15.3503 5.48008 15.2753C5.48008 15.2703 5.48008 15.2703 5.48008 15.2703C5.68508 15.0503 5.89508 14.8403 6.12508 14.6453C6.20508 14.5803 6.28008 14.5153 6.36508 14.4503C6.38008 14.4353 6.39508 14.4253 6.41508 14.4103C7.54008 13.5503 8.94508 13.0303 10.4601 13.0303C12.1801 13.0303 13.7451 13.6753 14.9301 14.7353C15.5001 15.2503 15.9851 15.8653 16.3501 16.5503C16.3801 16.6003 16.4101 16.6553 16.4351 16.7103C16.4801 16.8003 16.5251 16.8953 16.5651 16.9953C16.7301 17.3553 16.8601 17.7353 16.9501 18.1253C16.9601 18.1653 16.9701 18.2053 16.9801 18.2453C17.0201 18.4303 17.0551 18.6203 17.0801 18.8103C17.1201 19.1053 17.1401 19.4053 17.1401 19.7103Z" fill="#FF9800"/>
<path d="M16.1102 19.7097C16.1102 19.8097 16.1052 19.9197 16.1002 20.0347C16.0902 20.2197 16.0752 20.4197 16.0502 20.6247C16.0402 20.7497 16.0202 20.8747 16.0002 20.9997H13.2602L12.7302 20.9147L10.6602 20.5847L10.3652 20.5397L9.69018 20.4297C9.39518 20.4297 8.75518 20.5597 8.08018 20.6847C7.72518 20.7497 7.36518 20.8197 7.04018 20.8647C7.00018 20.8697 6.96018 20.8747 6.92518 20.8797H6.92018C6.57018 20.8047 6.23018 20.6897 5.91018 20.5397C5.81018 20.4947 5.71018 20.4447 5.61018 20.3897C5.33018 20.2347 5.06018 20.0497 4.81518 19.8447C4.81018 19.7847 4.80518 19.7347 4.80518 19.7097C4.80518 19.5797 4.81018 19.4547 4.82018 19.3297C4.84018 19.0097 4.88518 18.6997 4.95518 18.3997C5.06518 17.9447 5.22518 17.5047 5.44018 17.0997C5.48018 17.0147 5.52518 16.9297 5.57518 16.8497C5.59518 16.8097 5.62018 16.7747 5.64018 16.7347C5.73018 16.5897 5.83018 16.4497 5.93018 16.3097C6.14018 16.0347 6.37518 15.7747 6.62518 15.5397C6.63018 15.5397 6.63018 15.5397 6.63018 15.5397C6.65018 15.5197 6.67018 15.4997 6.69018 15.4847C6.71518 15.4647 6.73518 15.4397 6.76018 15.4247C6.86018 15.3347 6.96018 15.2547 7.06518 15.1797C7.06518 15.1747 7.07018 15.1747 7.07018 15.1747C8.01518 14.4697 9.18518 14.0547 10.4602 14.0547C11.4502 14.0547 12.3702 14.3047 13.1752 14.7447H13.1802C13.8702 15.1247 14.4702 15.6397 14.9452 16.2597C15.1302 16.4997 15.2952 16.7547 15.4352 17.0247H15.4402C15.4652 17.0747 15.4902 17.1247 15.5152 17.1747C15.6652 17.4697 15.7852 17.7797 15.8752 18.0997H15.8802C15.8852 18.1247 15.8952 18.1497 15.9002 18.1747C15.9602 18.3897 16.0102 18.6097 16.0452 18.8347C16.0502 18.8797 16.0552 18.9297 16.0602 18.9747C16.0952 19.2147 16.1102 19.4597 16.1102 19.7097Z" fill="#FFC107"/>
<path d="M15.085 19.655C15.085 19.735 15.085 19.82 15.075 19.9V19.905C15.075 19.91 15.075 19.91 15.075 19.91C15.065 20.27 15.015 20.625 14.935 20.945C14.935 20.965 14.93 20.98 14.92 21H12.585L10.66 20.585L10.405 20.53L10.365 20.54L8.22996 20.98L8.13496 21H7.99996C7.67996 21 7.36496 20.97 7.05996 20.91C7.01496 20.9 6.96996 20.89 6.92496 20.88H6.91996C6.56996 20.805 6.22996 20.69 5.90996 20.54C5.89996 20.485 5.88996 20.43 5.88496 20.375C5.84996 20.16 5.83496 19.935 5.83496 19.71C5.83496 19.625 5.83496 19.54 5.83996 19.455C5.85496 19.185 5.89496 18.92 5.95496 18.665C5.99496 18.475 6.04996 18.29 6.11496 18.115C6.16996 17.96 6.23496 17.81 6.30496 17.665C6.36496 17.54 6.43496 17.42 6.50496 17.3C6.57496 17.185 6.64996 17.075 6.72996 16.965C6.92996 16.69 7.16496 16.435 7.42496 16.21C7.57496 16.08 7.73996 15.955 7.90996 15.845C8.63996 15.365 9.51496 15.085 10.46 15.085C10.645 15.085 10.825 15.095 11 15.12H11.01C11.545 15.18 12.045 15.33 12.505 15.555C12.51 15.555 12.51 15.555 12.51 15.555C13.235 15.91 13.85 16.445 14.3 17.105C14.375 17.215 14.45 17.335 14.515 17.455C14.57 17.55 14.62 17.65 14.665 17.75C14.735 17.905 14.8 18.07 14.855 18.235H14.86C14.915 18.42 14.965 18.605 15 18.8V18.805C15.055 19.08 15.085 19.365 15.085 19.655Z" fill="#FFD54F"/>
<path d="M14.0549 19.7602V19.7752C14.0549 20.0702 14.0199 20.3602 13.9499 20.6452C13.9249 20.7652 13.8899 20.8852 13.8449 21.0002H11.6049L10.4599 20.6852L9.31486 21.0002H7.99986C7.67986 21.0002 7.36486 20.9702 7.05986 20.9102C7.04986 20.8952 7.04486 20.8802 7.03986 20.8652C6.96986 20.6502 6.91486 20.4352 6.88986 20.2102C6.86986 20.0652 6.85986 19.9152 6.85986 19.7602C6.85986 19.7002 6.85986 19.6352 6.86986 19.5752C6.87486 19.3402 6.90986 19.1102 6.96986 18.8902C6.99986 18.7402 7.04486 18.5952 7.10486 18.4552C7.12486 18.3852 7.15486 18.3202 7.18986 18.2552C7.26486 18.0852 7.35486 17.9202 7.45486 17.7602C7.56486 17.6002 7.68486 17.4502 7.81986 17.3102C7.97986 17.1302 8.15986 16.9652 8.36486 16.8302C8.71486 16.5752 9.11486 16.3852 9.54986 16.2802C9.83986 16.2002 10.1449 16.1602 10.4599 16.1602C11.4599 16.1602 12.3549 16.5602 13.0049 17.2052C13.0299 17.2302 13.0599 17.2602 13.0849 17.2952H13.0899C13.1599 17.3702 13.2249 17.4452 13.2899 17.5302C13.4749 17.7652 13.6299 18.0202 13.7499 18.3002C13.8099 18.4302 13.8599 18.5652 13.8999 18.7052C13.9049 18.7252 13.9099 18.7402 13.9149 18.7602C13.9849 19.0052 14.0299 19.2602 14.0399 19.5252C14.0499 19.6002 14.0549 19.6802 14.0549 19.7602Z" fill="#FFE082"/>
<path d="M13.0301 19.7604C13.0301 19.9654 13.0051 20.1604 12.9501 20.3454C12.9001 20.5454 12.8251 20.7354 12.7301 20.9154C12.7151 20.9454 12.6801 21.0004 12.6801 21.0004H8.24014C8.23514 20.9954 8.23014 20.9854 8.23014 20.9804C8.17014 20.8854 8.12014 20.7904 8.08014 20.6854C7.98014 20.4554 7.92014 20.2054 7.90014 19.9454C7.89014 19.8854 7.89014 19.8204 7.89014 19.7604C7.89014 19.7304 7.89014 19.6954 7.89514 19.6654C7.90014 19.4454 7.93014 19.2354 7.99014 19.0404C8.04014 18.8604 8.10514 18.6954 8.19014 18.5354C8.19014 18.5354 8.19514 18.5304 8.19514 18.5254C8.25514 18.4204 8.32014 18.3154 8.39514 18.2154C8.64014 17.8854 8.96514 17.6154 9.34014 17.4404C9.34514 17.4404 9.34514 17.4404 9.34514 17.4404C9.46514 17.3804 9.59014 17.3304 9.72014 17.2954C9.72014 17.2954 9.72014 17.2954 9.72514 17.2954C9.95514 17.2254 10.2051 17.1904 10.4601 17.1904C10.7551 17.1904 11.0401 17.2354 11.3001 17.3304C11.3951 17.3554 11.4851 17.3954 11.5751 17.4404C11.5751 17.4404 11.5751 17.4404 11.5801 17.4404C12.0101 17.6454 12.3751 17.9654 12.6251 18.3654C12.6751 18.4404 12.7201 18.5204 12.7601 18.6054C12.7801 18.6404 12.8001 18.6804 12.8151 18.7154C12.9301 18.9754 13.0001 19.2604 13.0201 19.5604C13.0251 19.5854 13.0251 19.6104 13.0251 19.6404C13.0301 19.6804 13.0301 19.7204 13.0301 19.7604Z" fill="#FFECB3"/>
<path d="M15 5.5H9C7.05 5.5 5.5 7.05 5.5 9V15C5.5 16.95 7.05 18.5 9 18.5H15C16.95 18.5 18.5 16.95 18.5 15V9C18.5 7.05 16.95 5.5 15 5.5Z" stroke="white" stroke-width="2" stroke-miterlimit="10" stroke-linecap="round" stroke-linejoin="round"/>
<path d="M15.5 8.5C15.7761 8.5 16 8.27614 16 8C16 7.72386 15.7761 7.5 15.5 7.5C15.2239 7.5 15 7.72386 15 8C15 8.27614 15.2239 8.5 15.5 8.5Z" fill="white"/>
<path d="M12 15C13.6569 15 15 13.6569 15 12C15 10.3431 13.6569 9 12 9C10.3431 9 9 10.3431 9 12C9 13.6569 10.3431 15 12 15Z" stroke="white" stroke-width="2" stroke-miterlimit="10" stroke-linecap="round" stroke-linejoin="round"/>
</svg>
