<svg xmlns="http://www.w3.org/2000/svg" version="1.1" xmlns:xlink="http://www.w3.org/1999/xlink" xmlns:svgjs="http://svgjs.com/svgjs" width="512" height="512" x="0" y="0" viewBox="0 0 512 512" style="enable-background:new 0 0 512 512" xml:space="preserve" class=""><g><g xmlns="http://www.w3.org/2000/svg"><path d="m278.627 32c-4.243 0-8.313 1.686-11.314 4.687l-59.313 59.313v64h192c17.673 0 32-14.327 32-32h16v-96z" fill="#f0915a" data-original="#f0915a" class=""></path><g><path d="m352 384h-192c-8.837 0-16-7.163-16-16v-146.667c0-8.837 7.163-16 16-16h192c8.837 0 16 7.163 16 16v146.667c0 8.837-7.164 16-16 16z" fill="#cd3232" data-original="#cd3232" class=""></path></g><g><path d="m288 384h-128c-8.837 0-16-7.163-16-16v-146.667c0-8.837 7.163-16 16-16h128c8.837 0 16 7.163 16 16v146.667c0 8.837-7.164 16-16 16z" fill="#ff4646" data-original="#ff4646" class=""></path></g><g><g><path d="m360 176h-208c-4.418 0-8-3.582-8-8v-96c0-4.418 3.582-8 8-8h208c4.418 0 8 3.582 8 8v96c0 4.418-3.582 8-8 8z" fill="#78af41" data-original="#78af41"></path></g><g><path d="m336 80h-160c0 8.837-7.163 16-16 16v48c8.837 0 16 7.163 16 16h160c0-8.837 7.163-16 16-16v-48c-8.837 0-16-7.163-16-16z" fill="#466932" data-original="#466932"></path></g><g><circle cx="256" cy="120" fill="#78af41" r="32" data-original="#78af41"></circle></g></g><g><g><path d="m232 384h-68.118c-12.73 0-24.939 5.057-33.941 14.059l-17.941 17.941 40 40 19.314-19.314c3.001-3.001 7.07-4.686 11.314-4.686h49.372c13.255 0 24-10.745 24-24 0-13.255-10.745-24-24-24z" fill="#fab991" data-original="#fab991" class=""></path></g><g><path d="m347.314 372.686c-6.248-6.249-16.379-6.249-22.627 0l-59.314 59.314h-82.745c-4.243 0-8.313 1.686-11.314 4.686l-19.314 19.314 24 24 16-16h76.687c6.411 0 12.438-2.497 16.97-7.03l61.657-61.657c6.248-6.248 6.248-16.378 0-22.627z" fill="#f0915a" data-original="#f0915a" class=""></path></g><g><path d="m232 421.333h-5.333c-4.418 0-8-3.582-8-8v-10.667c0-4.418 3.582-8 8-8h5.333c7.364 0 13.333 5.97 13.333 13.333 0 7.365-5.969 13.334-13.333 13.334z" fill="#f0915a" data-original="#f0915a" class=""></path></g><g><path d="m109.657 413.657 42.343 42.343-40 40h-96l82.343-82.343c3.124-3.124 8.19-3.124 11.314 0z" fill="#463c4b" data-original="#463c4b"></path></g><g><path d="m152 456 26.343 26.343c3.124 3.124 3.124 8.19 0 11.314l-2.343 2.343h-64z" fill="#32283c" data-original="#32283c"></path></g></g><g><path d="m277.657 101.657.887.887c14.059 14.059 36.853 14.059 50.912 0l14.544-14.544h40c26.51 0 48-21.49 48-48v-8h-89.373c-4.243 0-8.313 1.686-11.314 4.686l-53.657 53.657c-3.123 3.124-3.123 8.19.001 11.314z" fill="#fab991" data-original="#fab991" class=""></path></g><g><path d="m280 88 .686.686c6.248 6.248 16.379 6.248 22.627 0l4.525-4.525c1.562-1.562 1.562-4.095 0-5.657l-9.172-9.172z" fill="#f0915a" data-original="#f0915a" class=""></path></g><g><path d="m464 144h32v-128h-32c-8.837 0-16 7.163-16 16v96c0 8.837 7.163 16 16 16z" fill="#463c4b" data-original="#463c4b"></path></g><g><path d="m472 80h24v64h-32v-56c0-4.418 3.582-8 8-8z" fill="#32283c" data-original="#32283c"></path></g><g><path d="m240 232h-32c-4.418 0-8-3.582-8-8v-18.667h48v18.667c0 4.418-3.582 8-8 8z" fill="#faa037" data-original="#faa037"></path></g><g><path d="m276 360h-24c-2.209 0-4-1.791-4-4v-16c0-2.209 1.791-4 4-4h24c2.209 0 4 1.791 4 4v16c0 2.209-1.791 4-4 4z" fill="#cd3232" data-original="#cd3232" class=""></path></g></g></g></svg>