<svg width="40" height="40" viewBox="0 0 40 40" fill="none" xmlns="http://www.w3.org/2000/svg">
<path d="M8.3335 30V36.2767L10.8585 34.7617L18.7952 30H26.6668C28.5052 30 30.0002 28.505 30.0002 26.6667V13.3333C30.0002 11.495 28.5052 10 26.6668 10H6.66683C4.8285 10 3.3335 11.495 3.3335 13.3333V26.6667C3.3335 28.505 4.8285 30 6.66683 30H8.3335ZM6.66683 13.3333H26.6668V26.6667H17.8718L11.6668 30.39V26.6667H6.66683V13.3333Z" fill="#D01010"/>
<path d="M33.3333 3.33301H13.3333C11.495 3.33301 10 4.82801 10 6.66634H30C31.8383 6.66634 33.3333 8.16134 33.3333 9.99967V23.333C35.1717 23.333 36.6667 21.838 36.6667 19.9997V6.66634C36.6667 4.82801 35.1717 3.33301 33.3333 3.33301Z" fill="#D01010"/>
</svg>
