<svg xmlns="http://www.w3.org/2000/svg" version="1.1" xmlns:xlink="http://www.w3.org/1999/xlink" xmlns:svgjs="http://svgjs.com/svgjs" width="512" height="512" x="0" y="0" viewBox="0 0 512 512" style="enable-background:new 0 0 512 512" xml:space="preserve" class=""><g><g xmlns="http://www.w3.org/2000/svg"><g><g><path d="m29.368 7.5h175.491c12.065 0 21.846 9.781 21.846 21.846l-.023 144.199c0 12.065-9.781 21.846-21.846 21.846l-42.807-.016.025 32.342-41.417-32.342-91.292.016c-12.065 0-21.846-9.781-21.846-21.846l.024-144.199c0-12.065 9.78-21.846 21.845-21.846z" fill="#f4fbff" data-original="#f4fbff" class=""></path></g><g><path d="m206.527 7.584v67.591c0 12.272 2.74 23.929 7.655 34.356-13.499 6.549-22.83 20.394-22.83 36.378v32.325c0 6.132 1.379 11.945 3.834 17.156h9.651c12.065 0 21.846-9.781 21.846-21.846l.023-144.199c-.001-11.501-8.896-20.906-20.179-21.761z" fill="#dfeaef" data-original="#dfeaef"></path></g></g><g><g><path d="m368.128 300.447 83.88 22.368c30.954 8.254 52.492 36.288 52.492 68.324v113.361h-343.455v-113.361c0-32.036 21.538-60.069 52.492-68.324l83.88-22.368z" fill="#f4fbff" data-original="#f4fbff" class=""></path></g><g><path d="m349.945 410.555 13.132 93.945h-30.305-30.305l13.133-93.945z" fill="#e28086" data-original="#e28086"></path></g><g><path d="m349.945 410.555 15.153-35.356-32.326-36.366-32.325 36.366 15.153 35.356z" fill="#e28086" data-original="#e28086"></path></g><g><path d="m332.772 338.833-32.325 36.366-30.228-67.499 27.198-7.253z" fill="#dfeaef" data-original="#dfeaef"></path></g><g><path d="m332.772 338.833 32.326 36.366 30.228-67.499-27.198-7.253z" fill="#dfeaef" data-original="#dfeaef"></path></g><g><path d="m456.345 324.137c10.591 12.465 16.84 28.543 16.84 45.789v134.574h31.315v-113.361c0-30.515-19.548-57.384-48.155-67.002z" fill="#dfeaef" data-original="#dfeaef"></path></g><g><path d="m332.772 338.833-35.355-38.386v-43.437h70.711v43.437z" fill="#fcd0a3" data-original="#fcd0a3"></path></g><g><path d="m297.417 280.006c11.01 4.127 22.923 6.39 35.356 6.39s24.346-2.263 35.356-6.39v-22.996h-70.711v22.996z" fill="#ffb983" data-original="#ffb983"></path></g><g><path d="m251.959 101.445v83.935c0 44.632 36.181 80.813 80.813 80.813s80.813-36.181 80.813-80.813v-83.935z" fill="#fcd0a3" data-original="#fcd0a3"></path></g><g><path d="m413.585 185.38v-83.935h-19.193v105.057c0 15.77-4.534 30.474-12.345 42.911 19.173-14.776 31.538-37.954 31.538-64.033z" fill="#ffb983" data-original="#ffb983"></path></g><g><path d="m439.85 161.045v-82.834c0-22.316-18.091-40.407-40.406-40.407h-13.132c0-16.737-13.568-30.305-30.305-30.305h-129.302v67.681c0 33.474 27.136 60.61 60.61 60.61h55.995c10.716 0 20.994-4.257 28.572-11.835l14.429-14.429 27.274 52.528z" fill="#aa593d" data-original="#aa593d" class=""></path></g><g><path d="m409.375 39.038c2.69 5.411 4.211 11.506 4.211 17.959v104.047l-.514.02.514.99 26.264-1.01v-82.833c0-18.888-12.962-34.746-30.475-39.173z" fill="#934d36" data-original="#934d36"></path></g><g><path d="m433.789 198.421h-20.203v-72.732h20.203c11.158 0 20.203 9.045 20.203 20.203v32.325c0 11.158-9.045 20.204-20.203 20.204z" fill="#b1e4f9" data-original="#b1e4f9"></path></g><g><path d="m231.756 198.421h20.203v-72.732h-20.203c-11.158 0-20.203 9.045-20.203 20.203v32.325c0 11.158 9.045 20.204 20.203 20.204z" fill="#b1e4f9" data-original="#b1e4f9"></path></g></g><g><g><path d="m239.837 464.094h-232.337v-131.322c0-11.158 9.045-20.203 20.203-20.203h191.931c11.158 0 20.203 9.045 20.203 20.203z" fill="#a0aab7" data-original="#a0aab7"></path></g><g><circle cx="123.669" cy="388.331" fill="#f4fbff" r="20.203" data-original="#f4fbff" class=""></circle></g><g><path d="m7.5 464.094h252.541v20.203c0 11.158-9.045 20.203-20.203 20.203h-212.135c-11.158 0-20.203-9.045-20.203-20.203z" fill="#808b95" data-original="#808b95"></path></g><g><path d="m239.837 464.094v20.203c0 11.158-9.045 20.203-20.203 20.203h20.203c11.158 0 20.203-9.045 20.203-20.203v-20.203z" fill="#5e6b75" data-original="#5e6b75"></path></g></g><g><g><g><circle cx="117.09" cy="101.437" fill="#f6e266" r="60.61" data-original="#f6e266"></circle></g></g></g><g><path d="m136.057 116.412c-5.067 5.075-11.803 7.87-18.967 7.87s-13.899-2.795-18.967-7.87c-2.927-2.933-7.675-2.936-10.607-.009-2.931 2.927-2.935 7.676-.008 10.606 7.901 7.914 18.407 12.272 29.582 12.272s21.681-4.358 29.582-12.272c2.926-2.931 2.923-7.68-.008-10.606-2.932-2.927-7.681-2.924-10.607.009z" fill="#000000" data-original="#000000" class=""></path><path d="m48.98 101.437c0 37.557 30.554 68.11 68.11 68.11s68.11-30.554 68.11-68.11-30.554-68.109-68.11-68.109-68.11 30.553-68.11 68.109zm121.22 0c0 29.285-23.825 53.11-53.11 53.11s-53.11-23.825-53.11-53.11c0-29.284 23.825-53.109 53.11-53.109s53.11 23.824 53.11 53.109z" fill="#000000" data-original="#000000" class=""></path><circle cx="93.846" cy="86.284" r="10.102" fill="#000000" data-original="#000000" class=""></circle><circle cx="140.334" cy="86.284" r="10.102" fill="#000000" data-original="#000000" class=""></circle><path d="m504.5 414.429c4.143 0 7.5-3.357 7.5-7.5v-15.79c0-35.38-23.875-66.455-58.06-75.57l-78.313-20.884v-32.111c11.693-6.518 21.76-15.612 29.426-26.514 8.971-.798 16.031-8.347 16.031-17.522v-12.617h12.704c15.275 0 27.703-12.428 27.703-27.703v-32.325c0-10.351-5.71-19.389-14.143-24.144v-43.538c0-26.416-21.49-47.906-47.906-47.906h-6.38c-3.488-17.265-18.778-30.305-37.056-30.305h-129.301c-2.957 0-5.508 1.716-6.729 4.203-4.418-2.666-9.59-4.203-15.116-4.203h-21.217c-4.142 0-7.5 3.357-7.5 7.5s3.358 7.5 7.5 7.5h21.217c7.88 0 14.293 6.386 14.345 14.251l-.014 91.964c-8.975 4.589-15.138 13.924-15.138 24.677v32.325c0 3.388.614 6.635 1.732 9.638-.313.02-.626.034-.942.034l-42.81-.02c-.001 0-.002 0-.003 0-1.989 0-3.897.79-5.304 2.197s-2.198 3.316-2.196 5.308l.011 16.961-29.283-22.876c-1.319-1.03-2.945-1.59-4.619-1.59l-91.289.02c-7.913 0-14.35-6.438-14.35-14.349l.02-144.19c0-7.912 6.438-14.35 14.35-14.35h119.184c4.142 0 7.5-3.357 7.5-7.5s-3.358-7.5-7.5-7.5h-119.184c-16.183 0-29.35 13.166-29.35 29.349l-.02 144.191c0 16.184 13.167 29.35 29.352 29.35l88.707-.019 39.374 30.759c1.345 1.051 2.975 1.59 4.618 1.59 1.119 0 2.245-.25 3.289-.76 2.578-1.259 4.212-3.877 4.21-6.745l-.015-24.842 35.305.017c3.763 0 7.442-.727 10.88-2.104 4.53 3.228 10.063 5.135 16.036 5.135h15.121c5.817 24.327 21.727 44.773 43.04 56.653v32.115l-55.356 14.765c-4.312-2.77-9.433-4.384-14.927-4.384h-191.931c-15.275-.001-27.703 12.427-27.703 27.702v74.37c0 4.143 3.358 7.5 7.5 7.5s7.5-3.357 7.5-7.5v-74.37c0-7.005 5.699-12.703 12.703-12.703h191.931c7.004 0 12.703 5.698 12.703 12.703v123.821h-217.337v-14.415c0-4.143-3.358-7.5-7.5-7.5s-7.5 3.357-7.5 7.5v42.118c0 15.276 12.428 27.704 27.703 27.704h476.797c4.143 0 7.5-3.357 7.5-7.5v-62.533c0-4.143-3.357-7.5-7.5-7.5s-7.5 3.357-7.5 7.5v55.033h-127.398l-11.939-85.413 14.306-33.38 27.593-61.615 50.514 13.471c27.628 7.366 46.924 32.482 46.924 61.076v15.79c0 4.142 3.357 7.5 7.5 7.5zm-58.008-236.211c0 7.005-5.698 12.703-12.703 12.703h-12.704v-5.54-52.191h12.704c7.005 0 12.703 5.698 12.703 12.703zm-14.142-100.007v39.979h-18.765c-4.143 0-7.5 3.357-7.5 7.5v5.645l-12.274-23.64v-62.39h5.633c18.144 0 32.906 14.761 32.906 32.906zm-76.344-63.211c12.574 0 22.805 10.23 22.805 22.805v68.615l-12.231 12.232c-6.217 6.216-14.48 9.639-23.27 9.639h-55.994c-29.285 0-53.11-23.825-53.11-53.11v-60.181zm-111.547 175.921h-12.704c-7.004 0-12.703-5.698-12.703-12.703v-32.325c0-7.005 5.699-12.703 12.703-12.703h12.704v52.191zm15-5.54v-48.071c8.51 3.831 17.934 5.981 27.856 5.981h55.994c12.795 0 24.826-4.983 33.876-14.032l7.188-7.188 21.712 41.815v21.495c0 12.979-3.405 25.172-9.346 35.759h-50.989c-2.594-4.479-7.428-7.5-12.977-7.5-8.284 0-15 6.716-15 15s6.716 15 15 15c5.549 0 10.382-3.021 12.977-7.5h39.847c-13.348 13.886-32.087 22.554-52.823 22.554-40.426-.001-73.315-32.888-73.315-73.313zm73.313 88.312c9.729 0 19.094-1.586 27.855-4.505v28.331l-27.855 30.243-27.855-30.243v-28.331c8.761 2.92 18.126 4.505 27.855 4.505zm12.228 129.362h-24.455l-11.328-26.433 23.556-26.5 23.556 26.5zm-50.026-94.19 27.685 30.057-20.109 22.622-21.883-48.864zm-49.762 13.273 20.774-5.541 27.591 61.61 14.306 33.38-11.94 85.413h-31.499c1.974-3.808 3.097-8.126 3.097-12.703v-20.203c0-4.143-3.357-7.5-7.5-7.5h-12.704v-123.822c0-3.766-.758-7.358-2.125-10.634zm-230.212 162.159v-12.703h237.541v12.703c0 7.005-5.699 12.703-12.704 12.703h-212.134c-7.004 0-12.703-5.698-12.703-12.703zm296.089 12.703 11.035-78.945h21.297l11.035 78.945zm51.906-135.455-20.109-22.622 27.688-30.061 14.305 3.815z" fill="#000000" data-original="#000000" class=""></path><path d="m151.372 388.331c0-15.275-12.428-27.703-27.704-27.703-15.275 0-27.703 12.428-27.703 27.703s12.428 27.703 27.703 27.703c15.276 0 27.704-12.428 27.704-27.703zm-40.407 0c0-7.005 5.699-12.703 12.703-12.703 7.005 0 12.704 5.698 12.704 12.703s-5.699 12.703-12.704 12.703c-7.004 0-12.703-5.698-12.703-12.703z" fill="#000000" data-original="#000000" class=""></path></g></g></g></svg>