<svg xmlns="http://www.w3.org/2000/svg" xmlns:xlink="http://www.w3.org/1999/xlink" width="122" height="36" viewBox="0 0 122 36">
    <defs>
        <path id="a" d="M0 0h57v36H0z"/>
    </defs>
    <g fill="none" fill-rule="evenodd">
        <path fill="#000" d="M20.107 8h-3.214C16.4 8 16 8.367 16 8.82v18.36c0 .453.4.82.893.82h3.214c.493 0 .893-.367.893-.82V8.82c0-.453-.4-.82-.893-.82M13.14 23.41H4.81V8.82c0-.453-.385-.82-.86-.82H.86C.384 8 0 8.367 0 8.82v18.36c0 .453.385.82.86.82h12.28c.475 0 .86-.367.86-.82v-2.95c0-.453-.385-.82-.86-.82M57.14 12.59c.475 0 .86-.367.86-.82V8.82c0-.453-.385-.82-.86-.82H44.86c-.475 0-.859.367-.859.82v18.36c0 .453.384.82.859.82H57.14c.474 0 .859-.367.859-.82v-2.95c0-.453-.385-.82-.86-.82h-8.33v-3.115h8.33c.475 0 .86-.367.86-.82v-2.95c0-.453-.385-.82-.86-.82h-8.33V12.59h8.33zM40.139 8.004h-3.1c-.476 0-.862.367-.862.819v10.622l-8.114-11.04c-.23-.312-.573-.401-.954-.401-.048-.008-.097 0-.147 0h-3.1c-.476 0-.862.367-.862.819V27.18c0 .453.386.82.861.82h3.1c.476 0 .862-.367.862-.82V16.086l8.46 11.51c.03.041.063.079.099.114a.879.879 0 0 0 .595.29h3.162c.475 0 .861-.367.861-.82V8.823c0-.452-.386-.82-.861-.82"/>
        <g transform="translate(65)">
            <mask id="b" fill="#fff">
                <use xlink:href="#a"/>
            </mask>
            <path fill="#00C34D" d="M54.927 36H2.073A2.08 2.08 0 0 1 0 33.913V2.087A2.08 2.08 0 0 1 2.073 0h52.854A2.08 2.08 0 0 1 57 2.087v31.826A2.08 2.08 0 0 1 54.927 36" mask="url(#b)"/>
        </g>
        <path fill="#FFF" d="M82.235 14.829c0-1.239-.847-2.186-2-2.186h-2.47v4.371h2.47c1.153 0 2-.947 2-2.185m3.765 0c0 3.23-2.518 5.828-5.765 5.828h-2.47v4.771a.563.563 0 0 1-.555.572h-2.656a.563.563 0 0 1-.554-.572V9.572c0-.316.248-.572.554-.572h5.681C83.482 9 86 11.599 86 14.829M96.376 18.5c0-1.846-1.209-3.004-2.876-3.004-1.667 0-2.876 1.158-2.876 3.004 0 1.847 1.209 3.004 2.876 3.004 1.667 0 2.876-1.157 2.876-3.004M100 12.65v11.7a.302.302 0 0 1-.3.305h-3.025a.302.302 0 0 1-.3-.305v-.852c-.797.936-1.98 1.502-3.6 1.502C89.61 25 87 22.168 87 18.5s2.61-6.5 5.775-6.5c1.62 0 2.803.566 3.6 1.502v-.852c0-.168.135-.305.3-.305H99.7c.166 0 .3.137.3.305M111.252 12.316l-2.708 7.037-2.8-7.042a.486.486 0 0 0-.45-.311h-3.002c-.207 0-.349.217-.27.415l4.672 11.749-1.703 4.424c-.076.198.065.412.271.412h3.004c.2 0 .379-.125.452-.316l6.261-16.272c.076-.198-.065-.412-.271-.412h-3.004c-.2 0-.378.125-.452.316"/>
    </g>
</svg>
