<svg width="30" height="30" viewBox="0 0 30 30" fill="none" xmlns="http://www.w3.org/2000/svg">
<path d="M26.25 12.5H3.75C3.41848 12.5 3.10054 12.6317 2.86612 12.8661C2.6317 13.1005 2.5 13.4185 2.5 13.75C2.50006 15.9442 3.07766 18.0996 4.17476 19.9998C5.27186 21.9 6.84981 23.4779 8.75 24.575V26.25C8.75 26.5815 8.8817 26.8995 9.11612 27.1339C9.35054 27.3683 9.66848 27.5 10 27.5H20C20.3315 27.5 20.6495 27.3683 20.8839 27.1339C21.1183 26.8995 21.25 26.5815 21.25 26.25V24.575C23.1502 23.4779 24.7281 21.9 25.8252 19.9998C26.9223 18.0996 27.4999 15.9442 27.5 13.75C27.5 13.4185 27.3683 13.1005 27.1339 12.8661C26.8995 12.6317 26.5815 12.5 26.25 12.5Z" fill="#687486"/>
<path d="M11.2501 11.25V9.9125C11.2509 8.44152 10.6767 7.02849 9.65007 5.975C9.36026 5.68215 9.13147 5.33468 8.97698 4.95274C8.82248 4.5708 8.74536 4.16198 8.75007 3.75V2.5H6.25007V3.75C6.24273 5.22962 6.8174 6.65282 7.85007 7.7125C8.4293 8.29789 8.75293 9.08898 8.75007 9.9125V11.25H11.2501Z" fill="#687486"/>
<path d="M16.25 11.25V9.9125C16.2508 8.44152 15.6766 7.02849 14.65 5.975C14.3602 5.68215 14.1314 5.33468 13.9769 4.95274C13.8224 4.5708 13.7453 4.16198 13.75 3.75V2.5H11.25V3.75C11.2492 5.22098 11.8234 6.63401 12.85 7.6875C13.1398 7.98035 13.3686 8.32782 13.5231 8.70976C13.6776 9.0917 13.7547 9.50052 13.75 9.9125V11.25H16.25Z" fill="#687486"/>
<path d="M21.25 11.25V9.9125C21.2508 8.44152 20.6766 7.02849 19.65 5.975C19.3602 5.68215 19.1314 5.33468 18.9769 4.95274C18.8224 4.5708 18.7453 4.16198 18.75 3.75V2.5H16.25V3.75C16.2492 5.22098 16.8234 6.63401 17.85 7.6875C18.1398 7.98035 18.3686 8.32782 18.5231 8.70976C18.6776 9.0917 18.7547 9.50052 18.75 9.9125V11.25H21.25Z" fill="#687486"/>
</svg>
