<svg width="30" height="30" viewBox="0 0 30 30" fill="none" xmlns="http://www.w3.org/2000/svg">
<path d="M15 10C12.29 10 10 12.29 10 15C10 17.71 12.29 20 15 20C17.71 20 20 17.71 20 15C20 12.29 17.71 10 15 10ZM15 17.5C13.6687 17.5 12.5 16.3313 12.5 15C12.5 13.6687 13.6687 12.5 15 12.5C16.3313 12.5 17.5 13.6687 17.5 15C17.5 16.3313 16.3313 17.5 15 17.5Z" fill="#687486"/>
<path d="M25 6.25H21.7675L18.3837 2.86625C18.2679 2.74995 18.1301 2.65771 17.9785 2.59486C17.8268 2.532 17.6642 2.49976 17.5 2.5H12.5C12.3358 2.49976 12.1732 2.532 12.0215 2.59486C11.8699 2.65771 11.7321 2.74995 11.6162 2.86625L8.2325 6.25H5C3.62125 6.25 2.5 7.37125 2.5 8.75V22.5C2.5 23.8788 3.62125 25 5 25H25C26.3787 25 27.5 23.8788 27.5 22.5V8.75C27.5 7.37125 26.3787 6.25 25 6.25ZM5 22.5V8.75H8.75C9.0825 8.75 9.4 8.61875 9.63375 8.38375L13.0175 5H16.9825L20.3662 8.38375C20.4821 8.50005 20.6199 8.59229 20.7715 8.65515C20.9232 8.718 21.0858 8.75024 21.25 8.75H25L25.0025 22.5H5Z" fill="#687486"/>
</svg>
