<svg width="30" height="30" viewBox="0 0 30 30" fill="none" xmlns="http://www.w3.org/2000/svg">
<path d="M23.75 16.25V5C23.75 3.62125 22.6287 2.5 21.25 2.5H8.75C7.37125 2.5 6.25 3.62125 6.25 5V16.25C5.91848 16.25 5.60054 16.3817 5.36612 16.6161C5.1317 16.8505 5 17.1685 5 17.5V27.5H7.5V21.25H22.5V27.5H25V17.5C25 17.1685 24.8683 16.8505 24.6339 16.6161C24.3995 16.3817 24.0815 16.25 23.75 16.25ZM21.25 5V16.25H18.75V5H21.25ZM16.25 5V16.25H13.75V5H16.25ZM8.75 5H11.25V16.25H8.75V5Z" fill="#687486"/>
</svg>
