<svg width="30" height="30" viewBox="0 0 30 30" fill="none" xmlns="http://www.w3.org/2000/svg">
<path d="M4.9998 26.25C5.09944 26.262 5.20017 26.262 5.2998 26.25L10.2998 25C10.5216 24.9473 10.7248 24.8349 10.8873 24.675L26.2498 9.2625C26.7154 8.7941 26.9768 8.16047 26.9768 7.5C26.9768 6.83954 26.7154 6.20591 26.2498 5.7375L24.2748 3.75C24.0426 3.51756 23.7669 3.33316 23.4634 3.20735C23.1599 3.08154 22.8346 3.01678 22.5061 3.01678C22.1775 3.01678 21.8522 3.08154 21.5487 3.20735C21.2452 3.33316 20.9695 3.51756 20.7373 3.75L5.3748 19.1125C5.21329 19.2758 5.09699 19.4782 5.0373 19.7L3.7873 24.7C3.74238 24.8617 3.73048 25.0309 3.75234 25.1973C3.77419 25.3637 3.82934 25.5241 3.91451 25.6687C3.99967 25.8134 4.11309 25.9394 4.24801 26.0393C4.38293 26.1391 4.53658 26.2108 4.6998 26.25C4.79944 26.262 4.90017 26.262 4.9998 26.25ZM22.4998 5.5125L24.4873 7.5L22.4998 9.4875L20.5248 7.5L22.4998 5.5125ZM7.3873 20.6375L18.7498 9.2625L20.7373 11.25L9.3623 22.625L6.7248 23.275L7.3873 20.6375Z" fill="#687486"/>
</svg>
