<svg width="30" height="30" viewBox="0 0 30 30" fill="none" xmlns="http://www.w3.org/2000/svg">
<path d="M23.8387 6.16123C22.6817 4.99505 21.3048 4.06998 19.7879 3.43959C18.2709 2.80919 16.6439 2.486 15.0012 2.48873C13.3581 2.48615 11.7308 2.80941 10.2134 3.43978C8.69606 4.07015 7.31876 4.99514 6.16117 6.16123C1.28742 11.0337 1.28742 18.965 6.16117 23.8387C7.31878 25.0051 8.69627 25.9303 10.2139 26.5607C11.7315 27.1911 13.3591 27.5142 15.0024 27.5112C16.6451 27.5141 18.272 27.1911 19.789 26.5609C21.3059 25.9308 22.6828 25.0059 23.8399 23.84C28.7137 18.9675 28.7137 11.0362 23.8387 6.16123ZM15.2262 4.99998H14.7774C14.8537 4.99873 14.9262 4.98873 15.0024 4.98873C15.0787 4.98873 15.1499 4.99873 15.2262 4.99998ZM22.8037 21.25H19.9999L18.4274 24.395C17.3305 24.8002 16.1706 25.0089 15.0012 25.0112C13.8296 25.0091 12.6676 24.8 11.5687 24.3937L9.99992 21.2625H7.20617C6.17547 19.9811 5.47844 18.4642 5.17742 16.8475L7.49992 13.75L5.97992 10.7087C6.46493 9.67696 7.12417 8.73653 7.92867 7.92873C9.05465 6.7988 10.4348 5.95486 11.9537 5.46748L14.9999 7.49998L18.0474 5.46873C19.5659 5.95646 20.9458 6.79987 22.0724 7.92873C22.8761 8.73556 23.5348 9.67469 24.0199 10.705L22.4999 13.75L24.8224 16.8475C24.5228 18.459 23.8293 19.9714 22.8037 21.25Z" fill="#687486"/>
<path d="M10.625 13.75L12.5 18.75H17.5L19.375 13.75L15 10.625L10.625 13.75Z" fill="#687486"/>
</svg>
