<svg width="30" height="30" viewBox="0 0 30 30" fill="none" xmlns="http://www.w3.org/2000/svg">
<path d="M27.3502 2.6875L25.8502 3.1875C23.2794 4.08068 20.5343 4.35477 17.8377 3.9875C15.0041 3.54776 12.1038 3.93852 9.48768 5.1125C8.10078 5.70306 6.88362 6.63114 5.94702 7.81226C5.01042 8.99338 4.38414 10.39 4.12518 11.875C3.86176 13.3031 3.88871 14.7696 4.20441 16.187C4.52011 17.6044 5.11809 18.9437 5.96268 20.125C5.88768 20.3875 5.81268 20.65 5.75018 20.9125C5.24248 23.0713 4.99075 25.2823 5.00018 27.5H7.50018C7.61768 25.6848 7.86413 23.8802 8.23768 22.1C9.97197 23.0365 11.9169 23.5141 13.8877 23.4875C15.7258 23.4862 17.545 23.1165 19.2377 22.4C28.7502 18.3375 27.5002 4.825 27.5002 4.2625L27.3502 2.6875ZM18.2627 20.1C15.0002 21.4875 11.1002 21.25 8.91268 19.5375C9.28239 18.3013 9.78973 17.1105 10.4252 15.9875C10.9192 15.1793 11.502 14.4288 12.1627 13.75C12.8378 13.064 13.5982 12.4674 14.4252 11.975C16.134 10.9532 18.0292 10.2818 20.0002 10V8.75C17.7324 8.6715 15.4785 9.13427 13.4252 10.1C11.3257 11.1244 9.54521 12.7018 8.27518 14.6625C7.80414 15.4113 7.38644 16.1925 7.02518 17C6.44583 15.5179 6.28161 13.9059 6.55018 12.3375C6.72615 11.2394 7.1788 10.2042 7.86549 9.32946C8.55218 8.4547 9.45029 7.76918 10.4752 7.3375C11.9697 6.63895 13.6005 6.28035 15.2502 6.2875C16.0252 6.2875 16.7877 6.3625 17.5877 6.425C20.0931 6.74825 22.6369 6.59987 25.0877 5.9875C25.0002 9.4375 24.3752 17.5 18.2627 20.1Z" fill="#687486"/>
</svg>
