<svg width="30" height="30" viewBox="0 0 30 30" fill="none" xmlns="http://www.w3.org/2000/svg">
<path d="M26.25 7.5H23.75L22.1625 5.9125C21.5884 5.33778 20.8123 5.01031 20 5H16.875C16.6999 4.2985 16.2993 3.67391 15.7347 3.22224C15.1701 2.77057 14.4728 2.51682 13.75 2.5V10.45C13.8142 11.7124 14.3133 12.9137 15.1625 13.85C16.5607 15.1941 18.3895 16.0001 20.325 16.125L24.6375 14.4C25.1435 14.1969 25.5991 13.8859 25.9726 13.4886C26.3461 13.0914 26.6284 12.6175 26.8 12.1L27.5 10.1875C27.519 10.059 27.519 9.92847 27.5 9.8V8.75C27.5 8.41848 27.3683 8.10054 27.1339 7.86612C26.8995 7.63169 26.5815 7.5 26.25 7.5ZM20 10C19.7528 10 19.5111 9.92669 19.3055 9.78933C19.1 9.65198 18.9398 9.45676 18.8451 9.22835C18.7505 8.99994 18.7258 8.74861 18.774 8.50614C18.8222 8.26366 18.9413 8.04093 19.1161 7.86612C19.2909 7.6913 19.5137 7.57225 19.7561 7.52402C19.9986 7.47579 20.2499 7.50054 20.4784 7.59515C20.7068 7.68976 20.902 7.84997 21.0393 8.05554C21.1767 8.2611 21.25 8.50277 21.25 8.75C21.25 9.08152 21.1183 9.39946 20.8839 9.63388C20.6495 9.8683 20.3315 10 20 10Z" fill="#687486"/>
<path d="M14.225 14.675C13.353 13.72 12.7833 12.5283 12.5875 11.25H7.5C7.16598 11.2721 6.83109 11.2226 6.51776 11.1048C6.20442 10.9869 5.91988 10.8035 5.68317 10.5668C5.44647 10.3301 5.26306 10.0456 5.14524 9.73224C5.02742 9.41891 4.9779 9.08402 5 8.75C5 8.41848 4.8683 8.10054 4.63388 7.86612C4.39946 7.6317 4.08152 7.5 3.75 7.5C3.41848 7.5 3.10054 7.6317 2.86612 7.86612C2.6317 8.10054 2.5 8.41848 2.5 8.75C2.51256 9.61746 2.71748 10.4713 3.1 11.25C3.52169 12.0676 4.18513 12.7355 5 13.1625V27.5H8.75V21.25H16.25V27.5H20V17.3375C17.8194 17.1657 15.7717 16.2216 14.225 14.675Z" fill="#687486"/>
</svg>
