<svg width="30" height="30" viewBox="0 0 30 30" fill="none" xmlns="http://www.w3.org/2000/svg">
<path d="M26.05 9.25L27.8125 7.5L22.5 2.1875L20.75 3.95L22.5 5.725L20.75 7.5L18.0875 4.8375L16.325 3.0625L14.5625 4.8375L15.4375 5.725L3.75 17.4C3.3539 17.7949 3.10169 18.3113 3.03371 18.8665C2.96573 19.4217 3.0859 19.9837 3.375 20.4625L5 23.2L2.1875 26.05L3.95 27.8125L6.8 25L9.5375 26.6375C9.91608 26.8622 10.3473 26.9829 10.7875 26.9875C11.1237 26.9928 11.4575 26.9302 11.7689 26.8035C12.0803 26.6767 12.363 26.4885 12.6 26.25L24.275 14.575L25.1625 15.45L26.9375 13.6875L25.1625 11.9125L22.5 9.25L24.275 7.5L26.05 9.25ZM22.5 12.7875L10.825 24.475L7.5 22.5L5.525 19.175L6.6 18.0875L10.1375 21.625L11.9125 19.8625L8.375 16.325L10.1375 14.5625L13.675 18.0875L15.4375 16.325L11.9 12.7875L13.675 11.025L17.2125 14.5625L18.975 12.7875L15.4375 9.25L17.2125 7.5L22.5 12.7875Z" fill="#687486"/>
</svg>
