<svg width="26" height="26" viewBox="0 0 26 26" fill="none" xmlns="http://www.w3.org/2000/svg">
<path d="M24.645 3.06877C22.445 2.34752 16.75 0.481268 16.75 0.500018C16.75 1.49458 16.3549 2.44841 15.6517 3.15167C14.9484 3.85493 13.9946 4.25002 13 4.25002C12.0055 4.25002 11.0516 3.85493 10.3484 3.15167C9.64511 2.44841 9.25002 1.49458 9.25002 0.500018C9.25002 0.481268 3.55502 2.34752 1.35377 3.06877C1.10437 3.15052 0.887338 3.30929 0.733919 3.52224C0.580499 3.73518 0.498603 3.99132 0.500018 4.25377V8.89877C0.50007 9.08864 0.543377 9.276 0.62665 9.44664C0.709923 9.61728 0.830975 9.7667 0.980617 9.88357C1.13026 10.0004 1.30456 10.0817 1.49029 10.1211C1.67601 10.1606 1.86829 10.1572 2.05252 10.1113L5.50002 9.25002V24.25C5.50002 24.5815 5.63171 24.8995 5.86613 25.1339C6.10055 25.3683 6.4185 25.5 6.75002 25.5H19.25C19.5815 25.5 19.8995 25.3683 20.1339 25.1339C20.3683 24.8995 20.5 24.5815 20.5 24.25V9.25002L23.9475 10.1113C24.1317 10.1572 24.324 10.1606 24.5098 10.1211C24.6955 10.0817 24.8698 10.0004 25.0194 9.88357C25.1691 9.7667 25.2901 9.61728 25.3734 9.44664C25.4567 9.276 25.5 9.08864 25.5 8.89877V4.25377C25.5013 3.99116 25.4193 3.73491 25.2656 3.52195C25.112 3.30898 24.8947 3.1503 24.645 3.06877Z" fill="#687486"/>
</svg>
