<svg width="29" height="31" viewBox="0 0 29 31" fill="none" xmlns="http://www.w3.org/2000/svg">
<path d="M14.1671 1.86C13.3764 1.86485 12.5834 1.91571 11.7836 2.01985C10.2543 2.22086 8.73863 2.55508 7.28409 3.26954C4.97089 4.4054 3.33058 6.33321 2.8548 9.13532C2.65316 10.3172 2.49003 11.516 2.39714 12.7221C2.21816 15.0641 2.32917 17.4133 2.94995 19.7213C3.43933 21.5402 4.34105 23.1749 5.92019 24.2357C6.58855 24.6838 7.46987 24.9017 7.9298 25.1294C8.05894 25.1948 8.09066 25.2335 8.09745 25.2432C8.10425 25.2505 8.12238 25.2674 8.12011 25.4127C8.10425 26.8949 8.12011 29.7624 8.12011 29.7624L8.12238 30.38H9.15777L9.32542 30.2056C9.32542 30.2056 11.9558 27.5004 12.9074 26.3863C13.0796 26.1877 13.1679 26.0763 13.186 26.0642C13.2019 26.0521 13.1747 26.0449 13.3514 26.04C14.5998 26.0134 15.8459 25.9625 17.092 25.8899C18.7346 25.793 20.4089 25.6259 22.0197 24.9066C23.4221 24.2793 24.5935 23.2549 25.3026 21.7194C26.0276 20.1452 26.415 18.4765 26.56 16.7497C26.8002 13.8749 26.7164 10.9953 25.9732 8.15688C25.536 6.49305 24.6569 5.08594 23.3089 4.09297C21.6957 2.90626 19.8764 2.46063 18.0957 2.17727C17.0557 2.01258 16.009 1.9036 14.9578 1.86969C14.695 1.86243 14.4321 1.85758 14.1671 1.86ZM14.926 3.10969C15.9252 3.13876 16.9243 3.2429 17.9257 3.40274C19.6431 3.67641 21.263 4.09297 22.6518 5.11501C23.7778 5.94329 24.4802 7.06219 24.8563 8.48868C25.5496 11.1431 25.6379 13.8628 25.4046 16.6407C25.2709 18.2416 24.9152 19.7504 24.2604 21.172C23.6827 22.4266 22.781 23.2234 21.5711 23.7634C20.1664 24.3907 18.6394 24.5578 17.0308 24.6523C15.7983 24.7249 14.5635 24.7734 13.3288 24.8C13.0184 24.8073 12.7148 24.8945 12.4996 25.064C12.2843 25.2335 12.1869 25.3909 12.0532 25.5459C11.3735 26.3403 10.0187 27.7377 9.28011 28.5031C9.27558 27.5779 9.26878 26.459 9.28011 25.4273C9.28464 25.11 9.21667 24.7855 9.04675 24.5288C8.87683 24.272 8.64347 24.117 8.41917 24.0056C7.76441 23.6811 6.908 23.4341 6.53644 23.1846C5.23823 22.3127 4.50191 21.0049 4.06464 19.3774C3.49144 17.2486 3.38269 15.0568 3.55261 12.8263C3.64323 11.6686 3.79956 10.5085 3.99667 9.35813C4.40902 6.93383 5.70495 5.40805 7.76667 4.39571C9.06941 3.75633 10.4605 3.44149 11.9264 3.25016C12.9255 3.11938 13.9246 3.07821 14.926 3.10969ZM15.1707 6.20001C14.6927 6.20001 14.2282 6.25813 13.7774 6.36469C13.467 6.44219 13.2699 6.77399 13.3401 7.10821C13.4103 7.44243 13.723 7.65071 14.0357 7.57563C14.4004 7.48602 14.781 7.44001 15.1707 7.44001C18.0028 7.44001 20.2865 9.88126 20.2865 12.9062C20.2865 13.3252 20.2435 13.732 20.1596 14.1244C20.0894 14.4562 20.2843 14.7904 20.5969 14.8655C20.9096 14.9406 21.22 14.7299 21.2902 14.3956C21.3921 13.9161 21.4465 13.4196 21.4465 12.9062C21.4465 9.2104 18.6303 6.20001 15.1707 6.20001ZM9.38433 7.44243C9.28917 7.43758 9.19175 7.44485 9.0898 7.46907C8.03628 7.71852 6.98956 8.53469 6.96011 9.99266C6.98956 10.1961 6.9873 10.4141 7.05753 10.5981C7.40191 11.4991 7.70097 12.4291 8.13144 13.2816C10.2271 17.423 13.3968 20.3026 17.4364 22.1311C17.9189 22.3491 18.4174 22.3951 18.9045 22.1771C19.5751 21.8792 20.1438 21.4191 20.5221 20.7579C21.041 19.8497 21.0478 19.22 20.1936 18.5491C19.634 18.1084 19.0835 17.6555 18.5171 17.2244C17.6539 16.5705 16.7204 16.4566 16.077 17.6046C16.043 17.6627 15.9932 17.7112 15.9501 17.7596C15.6193 18.135 15.2138 18.227 14.7833 18.0381C13.1498 17.3188 11.8878 16.1588 11.1266 14.432C10.678 13.4172 10.8003 12.9086 11.6386 12.2329C11.7225 12.1675 11.8018 12.0973 11.8788 12.0222C12.2458 11.6638 12.3432 11.2375 12.1257 10.7556C11.6341 9.65602 10.9793 8.67516 10.1501 7.82993C9.92581 7.60227 9.6698 7.45938 9.38433 7.44243ZM15.1617 8.06001C14.9057 8.06001 14.6519 8.0818 14.4027 8.12782C14.192 8.15688 14.013 8.30704 13.936 8.51774C13.8589 8.73086 13.8975 8.97063 14.0334 9.14501C14.1716 9.31696 14.3891 9.39688 14.5975 9.34844C14.7788 9.31696 14.9691 9.30001 15.1617 9.30001C17.0467 9.30001 18.5601 10.9178 18.5601 12.9328C18.5601 13.1387 18.5443 13.3421 18.5148 13.5359C18.4695 13.7587 18.5443 13.9912 18.7051 14.1389C18.8682 14.2842 19.0925 14.3254 19.2919 14.2431C19.489 14.1607 19.6295 13.9694 19.6567 13.7441C19.6997 13.4777 19.7201 13.2065 19.7201 12.9328C19.7201 10.2494 17.672 8.06001 15.1617 8.06001ZM15.0801 9.92001C14.8717 9.91758 14.6768 10.0338 14.5703 10.2276C14.4661 10.4213 14.4661 10.6587 14.5703 10.8524C14.6768 11.0462 14.8717 11.1624 15.0801 11.16C16.0475 11.16 16.8201 11.9859 16.8201 13.02C16.8178 13.2428 16.9266 13.4511 17.1078 13.5649C17.2891 13.6763 17.5111 13.6763 17.6924 13.5649C17.8736 13.4511 17.9824 13.2428 17.9801 13.02C17.9801 11.315 16.6751 9.92001 15.0801 9.92001Z" fill="black"/>
</svg>
