<svg width="23" height="26" viewBox="0 0 23 26" fill="none" xmlns="http://www.w3.org/2000/svg">
<path d="M17.5797 17.4139C18.4239 17.8385 19.2731 18.2481 20.1023 18.7027C20.7417 19.0524 21.1613 19.5569 21.4361 20.2163C21.8307 21.1654 22.0305 22.1645 22.1704 23.1735C22.2353 23.6481 22.2753 24.1276 22.3253 24.6072C22.3303 24.6472 22.3253 24.6921 22.3752 24.7121C22.3752 24.9619 22.3702 25.2116 22.3802 25.4614C22.3852 25.5463 22.3652 25.5763 22.2753 25.5613C22.2353 25.5563 22.1904 25.5613 22.1504 25.5613C18.7636 25.5613 15.3767 25.5613 11.9949 25.5613C11.9499 25.4564 12.0049 25.3665 12.0448 25.2766C12.7741 23.5831 13.4985 21.8847 14.2228 20.1913C14.3127 19.9815 14.4476 19.8866 14.6624 19.8416C15.7364 19.6318 16.8154 19.412 17.8894 19.1972C17.9843 19.1772 18.0842 19.1772 18.1891 19.1023C17.8444 18.7876 17.4948 18.5129 17.1551 18.2281C16.4607 17.6487 15.7614 17.0692 15.072 16.4897C15.0021 16.4348 14.9171 16.3848 14.9371 16.2699C15.042 16.185 15.1419 16.235 15.2418 16.2799C15.9612 16.5896 16.6605 16.9293 17.3749 17.244C17.4548 17.284 17.5347 17.329 17.5797 17.4139Z" fill="#2C296F"/>
<path d="M0.0165659 24.6671C0.146445 24.3124 0.111477 23.9378 0.161431 23.5731C0.316287 22.4292 0.501116 21.2952 0.950698 20.2212C1.22544 19.5618 1.65005 19.0523 2.28446 18.7076C3.11369 18.2531 3.9629 17.8434 4.81211 17.4188C4.87705 17.2989 5.00193 17.259 5.11183 17.209C5.80119 16.8993 6.48556 16.5796 7.17991 16.2749C7.28481 16.2299 7.38472 16.15 7.50461 16.2249C7.52959 16.3698 7.4097 16.4248 7.32478 16.4947C6.32071 17.3389 5.31165 18.1781 4.30258 19.0173C4.27261 19.0423 4.23265 19.0673 4.22765 19.1272C4.30258 19.1922 4.40249 19.1872 4.4974 19.2072C5.56641 19.422 6.63042 19.6418 7.69943 19.8466C7.93421 19.8915 8.07408 20.0014 8.17399 20.2262C8.89832 21.9147 9.61765 23.6031 10.342 25.2915C10.3819 25.3814 10.4419 25.4714 10.3969 25.5763C7.02506 25.5763 3.65818 25.5713 0.286315 25.5813C0.0515331 25.5813 -0.033388 25.5313 0.0115702 25.2965C0.0265563 25.2266 0.0115702 25.1467 0.0115702 25.0717C0.0515331 25.0068 0.0515331 24.9369 0.0115702 24.8719C0.0165656 24.797 0.0165659 24.732 0.0165659 24.6671Z" fill="#2C296F"/>
<path d="M10.3972 25.5663C9.62789 23.7729 8.85861 21.9796 8.09432 20.1813C8.02938 20.0264 7.93946 19.9515 7.77462 19.9215C6.58572 19.6917 5.39682 19.4519 4.20793 19.2172C4.16297 19.2072 4.11801 19.1872 4.03809 19.1572C4.43771 18.8225 4.81736 18.5028 5.20201 18.1831C5.93133 17.5787 6.66065 16.9692 7.38498 16.3648C7.43493 16.3248 7.50487 16.2949 7.49987 16.2149C7.61476 16.0351 7.80459 15.9502 7.95445 15.8153C8.14927 15.6405 8.35408 15.4706 8.55889 15.3108C8.62882 15.2558 8.69376 15.1859 8.79866 15.2209C8.88858 15.2708 8.90357 15.3657 8.92355 15.4507C9.42308 17.5937 9.91762 19.7417 10.4122 21.8897C10.6669 22.9986 10.9217 24.1026 11.1864 25.2515C11.4362 24.1975 11.666 23.1785 11.9008 22.1594C12.3853 20.0514 12.8699 17.9483 13.3644 15.8403C13.4144 15.6305 13.3944 15.3857 13.5792 15.2159C13.6492 15.1859 13.7091 15.2109 13.7641 15.2558C14.1337 15.5456 14.4884 15.8603 14.858 16.15C14.898 16.18 14.923 16.2249 14.923 16.2799C15.7772 16.9942 16.6264 17.7086 17.4806 18.4229C17.7603 18.6577 18.0401 18.8925 18.3498 19.1522C18.0251 19.2721 17.7154 19.3021 17.4157 19.367C16.4715 19.5618 15.5274 19.7467 14.5833 19.9265C14.4384 19.9565 14.3535 20.0264 14.2986 20.1613C13.5293 21.9646 12.76 23.7629 11.9907 25.5663C11.4612 25.5663 10.9317 25.5663 10.3972 25.5663Z" fill="#FEFEFE"/>
<path d="M5.50146 2.95226C5.92607 1.98815 6.63042 1.28381 7.54956 0.784272C8.33383 0.354671 9.18804 0.159852 10.0672 0.0549491C10.1272 0.0499537 10.2021 0.0799258 10.2421 7.55697e-09C10.307 7.66049e-09 10.3769 7.77197e-09 10.4419 7.87549e-09C10.5068 0.0399629 10.5768 0.0399629 10.6417 8.19402e-09C10.8565 8.53643e-09 11.0763 8.8868e-09 11.2911 9.22922e-09C11.391 0.0399629 11.4909 0.0399629 11.5908 9.707e-09C11.7257 9.92201e-09 11.8556 1.0129e-08 11.9904 1.03441e-08C12.3201 0.109898 12.6648 0.119889 12.9995 0.199814C14.4581 0.55948 15.662 1.30379 16.5162 2.56262C16.5462 2.60258 16.5612 2.64754 16.5862 2.6925C16.4963 2.73746 16.4463 2.67252 16.3913 2.62256C15.2074 1.64847 13.8337 1.11397 12.3251 0.939128C10.1721 0.684365 8.159 1.08399 6.35567 2.34282C6.13588 2.49269 5.94106 2.67751 5.73125 2.83736C5.66631 2.89231 5.61136 2.97723 5.50146 2.95226Z" fill="#D01010"/>
<path d="M11.5963 -4.32871e-09C11.4963 0.0749696 11.3963 0.0749696 11.2964 0C11.3963 -1.4429e-09 11.4963 -2.88581e-09 11.5963 -4.32871e-09Z" fill="#AC865F"/>
<path d="M10.6462 -2.31365e-08C10.5812 0.0649737 10.5113 0.0799677 10.4463 0C10.5113 -7.51935e-09 10.5812 -1.56171e-08 10.6462 -2.31365e-08Z" fill="#C8AF95"/>
<path d="M0.0166016 24.8669C0.0965665 24.9319 0.081573 25.0019 0.0166015 25.0668C0.0166015 24.9969 0.0166015 24.9319 0.0166016 24.8669Z" fill="#A7D1ED"/>
<path d="M5.50136 2.95226C6.08582 2.44273 6.70025 1.97816 7.3996 1.64347C8.33872 1.19889 9.32281 0.944123 10.3519 0.844216C11.8055 0.704346 13.2092 0.909156 14.5629 1.45365C15.3073 1.75337 15.9766 2.17798 16.5911 2.6925C17.3204 3.36687 17.8998 4.14615 18.1846 5.11525C18.2096 5.20516 18.2795 5.24513 18.3494 5.29009C18.5343 5.40498 18.7091 5.53486 18.854 5.68971C19.0638 5.9195 19.1886 6.17426 19.1787 6.49896C19.1687 6.90359 19.1487 7.31321 19.1837 7.72283C19.2286 8.2923 18.9689 8.68194 18.5243 8.97167C18.3294 9.10155 18.2245 9.24641 18.1746 9.4712C18.0597 9.97573 17.8299 10.4403 17.5751 10.8899C17.4453 11.3195 17.1356 11.6342 16.8358 11.9389C15.8218 12.953 14.5829 13.5075 13.1592 13.6523C12.6497 13.6573 12.1452 13.6573 11.6407 13.6523C10.9163 13.6473 10.3319 13.0828 10.3269 12.3935C10.3219 11.6941 10.9063 11.1247 11.6506 11.1197C12.1502 11.1147 12.6497 11.1197 13.1443 11.1197C13.4839 11.1197 13.7887 11.2196 14.0284 11.4594C14.1783 11.6092 14.3232 11.6192 14.498 11.5243C14.7428 11.3944 14.9726 11.2495 15.1924 11.0847C16.1864 10.3054 16.681 9.27638 16.7159 8.02255C16.7309 7.54799 16.706 7.07343 16.7209 6.59887C16.7509 5.48491 16.2813 4.60073 15.4521 3.89638C14.453 3.05217 13.2741 2.64754 11.9853 2.50767C10.7415 2.3728 9.5476 2.53265 8.39367 3.0122C7.48951 3.39185 6.70524 3.94134 6.16574 4.78056C5.84604 5.2751 5.6762 5.8146 5.6762 6.40405C5.6762 7.35317 5.6762 8.30229 5.6762 9.24641C5.6762 9.63605 5.61126 9.686 5.23161 9.61107C5.08175 9.5811 4.91191 9.5861 4.807 9.44123C4.34743 9.28138 3.91783 9.07157 3.56815 8.7219C3.32838 8.48212 3.1985 8.20238 3.20849 7.85271C3.22347 7.46307 3.23846 7.06843 3.20349 6.68379C3.15354 6.08435 3.43328 5.67972 3.90284 5.38C4.09766 5.25512 4.20756 5.11025 4.2775 4.89046C4.52227 4.14615 4.98684 3.53172 5.50136 2.95226Z" fill="black"/>
<path d="M13.1898 13.5874C15.068 13.3626 16.5516 12.5034 17.5757 10.8899C17.5757 13.0678 17.5757 15.2408 17.5757 17.4188C16.7964 17.0641 16.0121 16.7095 15.2329 16.3548C15.1329 16.3098 15.038 16.2649 14.9231 16.2849C14.4935 15.9302 14.0689 15.5805 13.6393 15.2258C13.5494 15.2009 13.5095 15.1259 13.4895 15.041C13.3746 14.5814 13.2397 14.1269 13.1548 13.6623C13.1648 13.6323 13.1748 13.6073 13.1898 13.5874Z" fill="#D01010"/>
<path d="M4.80176 9.44623C4.98659 9.49119 5.17141 9.53614 5.35624 9.57611C5.52608 9.61607 5.61101 9.57111 5.60601 9.3663C5.59602 8.41219 5.60601 7.45308 5.60102 6.49897C5.59102 5.36002 6.11054 4.49083 6.95975 3.79648C7.96382 2.96725 9.14273 2.57261 10.4265 2.44273C11.9102 2.29287 13.3238 2.52765 14.6326 3.25198C15.6417 3.80647 16.416 4.57575 16.7057 5.73967C16.7706 5.99943 16.7956 6.25919 16.7856 6.52894C16.7607 7.2183 16.8456 7.90766 16.7357 8.59202C16.5708 9.63605 16.0813 10.4953 15.2321 11.1347C15.1721 11.0198 15.2421 10.9249 15.282 10.8299C15.6866 9.88082 15.8315 8.88675 15.8765 7.8627C15.8965 7.41312 15.9114 6.96853 15.9214 6.51895C15.9264 6.16428 15.7716 5.88953 15.5118 5.67473C14.9923 5.23514 14.3879 4.99037 13.7285 4.87547C13.5536 4.8455 13.4188 4.88546 13.3238 5.04532C12.7943 5.91451 11.9601 6.38907 11.041 6.73874C10.0269 7.12339 8.96789 7.27824 7.8839 7.26326C7.49426 7.25826 7.09962 7.26326 6.70999 7.26326C6.54514 7.26326 6.45522 7.31321 6.4752 7.49304C6.54014 8.15243 6.55513 8.82181 6.69 9.4762C7.00471 11.0148 7.76401 12.2936 8.94291 13.3226C9.04781 13.4125 9.18269 13.4825 9.22765 13.6273C9.16271 14.1169 9.00785 14.5914 8.88796 15.071C8.86798 15.1459 8.82302 15.2059 8.7431 15.2309C8.40841 15.5106 8.07871 15.7903 7.74402 16.0651C7.66909 16.125 7.57918 16.17 7.49925 16.2199C6.67502 16.5546 5.87076 16.9493 5.06152 17.3139C4.9766 17.3489 4.89667 17.3889 4.81175 17.4238C4.81175 15.056 4.80675 12.6932 4.80675 10.3254C4.80675 10.0257 4.80176 9.73596 4.80176 9.44623Z" fill="#D01010"/>
<path d="M8.74902 15.2208C8.95383 14.7663 9.00379 14.2667 9.14865 13.7922C9.16364 13.7372 9.18362 13.6823 9.19861 13.6273C9.34347 13.5824 9.43339 13.6923 9.53329 13.7572C10.0578 14.1019 10.6223 14.3217 11.2567 14.3117C11.8561 14.3017 12.3806 14.0519 12.8802 13.7472C12.9801 13.6873 13.07 13.6073 13.1949 13.6323C13.3098 14.0719 13.4297 14.5115 13.5396 14.9511C13.5645 15.051 13.5995 15.1409 13.6495 15.2258C13.5146 15.2858 13.5396 15.4257 13.5146 15.5306C12.9102 18.1232 12.3157 20.7107 11.7163 23.3033C11.5564 23.9977 11.4016 24.6921 11.2417 25.3864C11.2367 25.4064 11.2167 25.4214 11.1818 25.4763C11.0519 24.9318 10.927 24.4173 10.8121 23.9078C10.4674 22.4142 10.1277 20.9206 9.78306 19.4269C9.47335 18.0882 9.16364 16.7444 8.85892 15.4057C8.83394 15.3307 8.82895 15.2558 8.74902 15.2208Z" fill="#DAB499"/>
<path d="M13.1892 13.6323C12.7845 13.8871 12.3749 14.1419 11.9103 14.2767C11.0362 14.5315 10.2519 14.3067 9.51257 13.8272C9.40766 13.7572 9.30276 13.6973 9.19786 13.6323C8.47353 13.0479 7.8641 12.3635 7.39953 11.5543C6.88001 10.6551 6.60027 9.68102 6.50536 8.65197C6.47039 8.26234 6.45041 7.8727 6.41045 7.48806C6.39047 7.27325 6.43542 7.17834 6.68519 7.18833C7.24967 7.20832 7.81914 7.21331 8.38362 7.18833C9.64245 7.13338 10.8513 6.87862 11.9603 6.23922C12.5098 5.92451 12.9893 5.52987 13.2991 4.9654C13.379 4.81554 13.4839 4.77558 13.6437 4.79556C14.383 4.90046 15.0574 5.16521 15.6219 5.66475C15.8617 5.87955 16.0015 6.15429 15.9965 6.49897C15.9816 7.61294 15.9566 8.72191 15.6968 9.81589C15.5869 10.2705 15.4071 10.7001 15.2373 11.1297C15.0774 11.2895 14.8776 11.3994 14.6828 11.5043C14.5529 11.5743 14.418 11.6542 14.2731 11.6892C14.0983 11.7291 14.0534 11.5243 13.9385 11.4444C13.7187 11.2945 13.4889 11.1896 13.2241 11.1896C12.6746 11.1896 12.1251 11.1796 11.5757 11.1896C10.9163 11.1996 10.3967 11.7391 10.4017 12.3985C10.4067 13.0379 10.9263 13.5724 11.5757 13.5824C12.1152 13.5924 12.6547 13.5874 13.1942 13.5874C13.1942 13.6024 13.1941 13.6174 13.1892 13.6323Z" fill="#F5CAAC"/>
</svg>
