<svg width="32" height="33" viewBox="0 0 32 33" fill="none" xmlns="http://www.w3.org/2000/svg">
<path d="M27.9998 5.55076H2.6665V8.25788H5.73317L10.1065 20.4399C10.3816 21.2298 10.8906 21.9139 11.5638 22.3986C12.2369 22.8832 13.0412 23.1447 13.8665 23.147H25.3332V20.4399H13.8665C13.5925 20.4398 13.3252 20.354 13.1009 20.1941C12.8766 20.0343 12.7063 19.8082 12.6132 19.5466L11.9998 17.7328H24.3732C24.9519 17.7319 25.5146 17.54 25.9764 17.186C26.4382 16.8319 26.774 16.335 26.9332 15.7701L29.3332 7.26978C29.3874 7.09204 29.4049 6.90486 29.3846 6.71993C29.3644 6.535 29.3068 6.3563 29.2154 6.19499C29.1241 6.03367 29.001 5.89321 28.8538 5.78236C28.7066 5.67152 28.5384 5.59268 28.3598 5.55076C28.2406 5.53105 28.1191 5.53105 27.9998 5.55076ZM24.3332 15.0257H10.9998L8.57317 8.25788H26.2265L24.3332 15.0257Z" fill="black"/>
<path d="M14 28.5613C15.1046 28.5613 16 27.6523 16 26.5309C16 25.4096 15.1046 24.5006 14 24.5006C12.8954 24.5006 12 25.4096 12 26.5309C12 27.6523 12.8954 28.5613 14 28.5613Z" fill="black"/>
<path d="M22 28.5613C23.1046 28.5613 24 27.6523 24 26.5309C24 25.4096 23.1046 24.5006 22 24.5006C20.8954 24.5006 20 25.4096 20 26.5309C20 27.6523 20.8954 28.5613 22 28.5613Z" fill="black"/>
</svg>
