<svg width="27" height="27" viewBox="0 0 27 27" fill="none" xmlns="http://www.w3.org/2000/svg">
<path d="M20.6095 14.3907C20.4857 14.2668 20.3388 14.1684 20.177 14.1014C20.0153 14.0343 19.8419 13.9997 19.6668 13.9997C19.4917 13.9997 19.3183 14.0343 19.1565 14.1014C18.9948 14.1684 18.8478 14.2668 18.7241 14.3907L16.5988 16.516C15.6135 16.2227 13.7748 15.556 12.6095 14.3907C11.4441 13.2253 10.7775 11.3867 10.4841 10.4013L12.6095 8.27601C12.7334 8.1523 12.8317 8.00536 12.8988 7.8436C12.9659 7.68185 13.0004 7.50846 13.0004 7.33335C13.0004 7.15824 12.9659 6.98484 12.8988 6.82309C12.8317 6.66134 12.7334 6.5144 12.6095 6.39068L7.27612 1.05735C7.1524 0.933419 7.00546 0.835102 6.84371 0.768021C6.68196 0.70094 6.50856 0.666412 6.33345 0.666412C6.15834 0.666412 5.98495 0.70094 5.8232 0.768021C5.66144 0.835102 5.5145 0.933419 5.39079 1.05735L1.77479 4.67335C1.26812 5.18001 0.982786 5.87601 0.993453 6.58668C1.02412 8.48535 1.52679 15.08 6.72412 20.2773C11.9215 25.4747 18.5161 25.976 20.4161 26.008H20.4535C21.1575 26.008 21.8228 25.7307 22.3268 25.2267L25.9428 21.6107C26.0667 21.487 26.165 21.34 26.2321 21.1783C26.2992 21.0165 26.3337 20.8431 26.3337 20.668C26.3337 20.4929 26.2992 20.3195 26.2321 20.1578C26.165 19.996 26.0667 19.8491 25.9428 19.7253L20.6095 14.3907ZM20.4401 23.34C18.7761 23.312 13.0828 22.8653 8.60945 18.3907C4.12145 13.9027 3.68679 8.18935 3.66012 6.55868L6.33345 3.88535L9.78145 7.33335L8.05745 9.05735C7.90074 9.21395 7.78551 9.40713 7.72219 9.61944C7.65887 9.83175 7.64945 10.0565 7.69479 10.2733C7.72679 10.4267 8.50945 14.0627 10.7228 16.276C12.9361 18.4893 16.5721 19.272 16.7255 19.304C16.9422 19.3506 17.1672 19.342 17.3797 19.2788C17.5921 19.2157 17.7853 19.1001 17.9415 18.9427L19.6668 17.2187L23.1148 20.6667L20.4401 23.34Z" fill="black"/>
</svg>
