<svg width="27" height="26" viewBox="0 0 27 26" fill="none" xmlns="http://www.w3.org/2000/svg">
<path d="M23.3638 20.3586C22.7394 19.7513 22.1316 19.1267 21.5412 18.4853C21.0452 17.9736 20.7465 17.6014 20.7465 17.6014L17.0132 15.7917C18.5078 14.0708 19.3327 11.8555 19.3332 9.56125C19.3332 4.33786 15.1465 0.0863342 9.99984 0.0863342C4.85317 0.0863342 0.666504 4.33786 0.666504 9.56125C0.666504 14.7846 4.85317 19.0362 9.99984 19.0362C12.3505 19.0362 14.4932 18.1428 16.1372 16.6823L17.9198 20.4723C17.9198 20.4723 18.2865 20.7755 18.7905 21.279C19.3065 21.7703 19.9852 22.4349 20.6358 23.1293L22.4465 25.0135L23.2518 25.8879L26.0798 23.017L25.2185 22.1994C24.7132 21.6959 24.0385 21.0272 23.3638 20.3586ZM9.99984 16.329C6.32384 16.329 3.33317 13.293 3.33317 9.56125C3.33317 5.82948 6.32384 2.79345 9.99984 2.79345C13.6758 2.79345 16.6665 5.82948 16.6665 9.56125C16.6665 13.293 13.6758 16.329 9.99984 16.329Z" fill="#D01010"/>
</svg>
