<svg width="25" height="30" viewBox="0 0 25 30" fill="none" xmlns="http://www.w3.org/2000/svg">
<path d="M12.1671 0.860005C11.3764 0.864849 10.5834 0.915708 9.78363 1.01985C8.25433 1.22086 6.73863 1.55508 5.28409 2.26954C2.97089 3.4054 1.33058 5.33321 0.854796 8.13532C0.653155 9.31719 0.49003 10.516 0.39714 11.7221C0.218155 14.0641 0.329171 16.4133 0.949952 18.7213C1.43933 20.5402 2.34105 22.1749 3.92019 23.2357C4.58855 23.6838 5.46987 23.9017 5.9298 24.1294C6.05894 24.1948 6.09066 24.2335 6.09745 24.2432C6.10425 24.2505 6.12238 24.2674 6.12011 24.4127C6.10425 25.8949 6.12011 28.7624 6.12011 28.7624L6.12238 29.38H7.15777L7.32542 29.2056C7.32542 29.2056 9.95581 26.5004 10.9074 25.3863C11.0796 25.1877 11.1679 25.0763 11.186 25.0642C11.2019 25.0521 11.1747 25.0449 11.3514 25.04C12.5998 25.0134 13.8459 24.9625 15.092 24.8899C16.7346 24.793 18.4089 24.6259 20.0197 23.9066C21.4221 23.2793 22.5935 22.2549 23.3026 20.7194C24.0276 19.1452 24.415 17.4765 24.56 15.7497C24.8002 12.8749 24.7164 9.99532 23.9732 7.15688C23.536 5.49305 22.6569 4.08594 21.3089 3.09297C19.6957 1.90626 17.8764 1.46063 16.0957 1.17727C15.0557 1.01258 14.009 0.903599 12.9578 0.869692C12.695 0.862427 12.4321 0.857583 12.1671 0.860005ZM12.926 2.10969C13.9252 2.13876 14.9243 2.2429 15.9257 2.40274C17.6431 2.67641 19.263 3.09297 20.6518 4.11501C21.7778 4.94329 22.4802 6.06219 22.8563 7.48868C23.5496 10.1431 23.6379 12.8628 23.4046 15.6407C23.2709 17.2416 22.9152 18.7504 22.2604 20.172C21.6827 21.4266 20.781 22.2234 19.5711 22.7634C18.1664 23.3907 16.6394 23.5578 15.0308 23.6523C13.7983 23.7249 12.5635 23.7734 11.3288 23.8C11.0184 23.8073 10.7148 23.8945 10.4996 24.064C10.2843 24.2335 10.1869 24.3909 10.0532 24.5459C9.37355 25.3403 8.0187 26.7377 7.28011 27.5031C7.27558 26.5779 7.26878 25.459 7.28011 24.4273C7.28464 24.11 7.21667 23.7855 7.04675 23.5288C6.87683 23.272 6.64347 23.117 6.41917 23.0056C5.76441 22.6811 4.908 22.4341 4.53644 22.1846C3.23823 21.3127 2.50191 20.0049 2.06464 18.3774C1.49144 16.2486 1.38269 14.0568 1.55261 11.8263C1.64323 10.6686 1.79956 9.50852 1.99667 8.35813C2.40902 5.93383 3.70495 4.40805 5.76667 3.39571C7.06941 2.75633 8.4605 2.44149 9.92636 2.25016C10.9255 2.11938 11.9246 2.07821 12.926 2.10969ZM13.1707 5.20001C12.6927 5.20001 12.2282 5.25813 11.7774 5.36469C11.467 5.44219 11.2699 5.77399 11.3401 6.10821C11.4103 6.44243 11.723 6.65071 12.0357 6.57563C12.4004 6.48602 12.781 6.44001 13.1707 6.44001C16.0028 6.44001 18.2865 8.88126 18.2865 11.9062C18.2865 12.3252 18.2435 12.732 18.1596 13.1244C18.0894 13.4562 18.2843 13.7904 18.5969 13.8655C18.9096 13.9406 19.22 13.7299 19.2902 13.3956C19.3921 12.9161 19.4465 12.4196 19.4465 11.9062C19.4465 8.2104 16.6303 5.20001 13.1707 5.20001ZM7.38433 6.44243C7.28917 6.43758 7.19175 6.44485 7.0898 6.46907C6.03628 6.71852 4.98956 7.53469 4.96011 8.99266C4.98956 9.1961 4.9873 9.41407 5.05753 9.59813C5.40191 10.4991 5.70097 11.4291 6.13144 12.2816C8.22714 16.423 11.3968 19.3026 15.4364 21.1311C15.9189 21.3491 16.4174 21.3951 16.9045 21.1771C17.5751 20.8792 18.1438 20.4191 18.5221 19.7579C19.041 18.8497 19.0478 18.22 18.1936 17.5491C17.634 17.1084 17.0835 16.6555 16.5171 16.2244C15.6539 15.5705 14.7204 15.4566 14.077 16.6046C14.043 16.6627 13.9932 16.7112 13.9501 16.7596C13.6193 17.135 13.2138 17.227 12.7833 17.0381C11.1498 16.3188 9.88785 15.1588 9.12659 13.432C8.678 12.4172 8.80034 11.9086 9.63863 11.2329C9.72245 11.1675 9.80175 11.0973 9.87878 11.0222C10.2458 10.6638 10.3432 10.2375 10.1257 9.75555C9.63409 8.65602 8.97933 7.67516 8.15011 6.82993C7.92581 6.60227 7.6698 6.45938 7.38433 6.44243ZM13.1617 7.06001C12.9057 7.06001 12.6519 7.0818 12.4027 7.12782C12.192 7.15688 12.013 7.30704 11.936 7.51774C11.8589 7.73087 11.8975 7.97063 12.0334 8.14501C12.1716 8.31696 12.3891 8.39688 12.5975 8.34844C12.7788 8.31696 12.9691 8.30001 13.1617 8.30001C15.0467 8.30001 16.5601 9.91782 16.5601 11.9328C16.5601 12.1387 16.5443 12.3421 16.5148 12.5359C16.4695 12.7587 16.5443 12.9912 16.7051 13.1389C16.8682 13.2842 17.0925 13.3254 17.2919 13.2431C17.489 13.1607 17.6295 12.9694 17.6567 12.7441C17.6997 12.4777 17.7201 12.2065 17.7201 11.9328C17.7201 9.24938 15.672 7.06001 13.1617 7.06001ZM13.0801 8.92001C12.8717 8.91758 12.6768 9.03383 12.5703 9.22758C12.4661 9.42133 12.4661 9.65868 12.5703 9.85243C12.6768 10.0462 12.8717 10.1624 13.0801 10.16C14.0475 10.16 14.8201 10.9859 14.8201 12.02C14.8178 12.2428 14.9266 12.4511 15.1078 12.5649C15.2891 12.6763 15.5111 12.6763 15.6924 12.5649C15.8736 12.4511 15.9824 12.2428 15.9801 12.02C15.9801 10.315 14.6751 8.92001 13.0801 8.92001Z" fill="black"/>
</svg>
