<svg width="25" height="25" viewBox="0 0 25 25" fill="none" xmlns="http://www.w3.org/2000/svg">
<path fill-rule="evenodd" clip-rule="evenodd" d="M20.5373 3.51067C19.4285 2.39452 18.1092 1.5095 16.6558 0.906873C15.2025 0.30425 13.644 -0.00399083 12.0707 7.89459e-06C5.47333 7.89459e-06 0.102667 5.36934 0.1 11.9693C0.1 14.0787 0.650666 16.1373 1.69733 17.9533L0 24.1547L6.34533 22.4893C8.10052 23.4448 10.0669 23.9458 12.0653 23.9467H12.0707C18.6667 23.9467 24.0373 18.5773 24.04 11.9773C24.0445 10.4047 23.7373 8.84666 23.1361 7.39342C22.5349 5.94018 21.6516 4.6205 20.5373 3.51067ZM12.0707 21.9267H12.0667C10.2847 21.9269 8.53551 21.4474 7.00267 20.5387L6.64 20.3227L2.87467 21.3107L3.87867 17.64L3.64267 17.264C2.64638 15.6779 2.11898 13.8424 2.12133 11.9693C2.124 6.48401 6.58667 2.02134 12.0747 2.02134C13.3817 2.01844 14.6763 2.27478 15.8835 2.77554C17.0908 3.2763 18.1868 4.01153 19.108 4.93867C20.0342 5.8614 20.7683 6.95853 21.2678 8.16667C21.7674 9.37481 22.0226 10.67 22.0187 11.9773C22.016 17.4627 17.5533 21.9267 12.0707 21.9267ZM17.528 14.4747C17.228 14.324 15.7587 13.6013 15.484 13.5013C15.2107 13.4013 15.012 13.352 14.812 13.6507C14.612 13.9493 14.0387 14.6227 13.864 14.8227C13.6893 15.0227 13.5147 15.0467 13.216 14.8973C12.9173 14.748 11.9533 14.432 10.8107 13.4133C9.92133 12.62 9.32133 11.6413 9.14667 11.3413C8.972 11.0413 9.128 10.88 9.27867 10.7307C9.41333 10.5973 9.57733 10.3813 9.72667 10.2067C9.876 10.032 9.92533 9.90801 10.0253 9.70801C10.1253 9.50801 10.076 9.33334 10 9.18401C9.92533 9.03334 9.32667 7.56134 9.07733 6.96267C8.836 6.38267 8.58933 6.46001 8.40533 6.45201C8.21477 6.44421 8.02406 6.44066 7.83333 6.44134C7.68167 6.44521 7.53245 6.48036 7.39501 6.5446C7.25758 6.60885 7.1349 6.70079 7.03467 6.81467C6.76 7.11467 5.988 7.83734 5.988 9.30934C5.988 10.7813 7.06 12.204 7.20933 12.404C7.35867 12.604 9.31867 15.624 12.3187 16.92C13.0333 17.228 13.5907 17.412 14.024 17.5507C14.74 17.7787 15.392 17.7453 15.908 17.6693C16.4827 17.584 17.6773 16.9467 17.9267 16.248C18.176 15.5493 18.176 14.9507 18.1013 14.8253C18.0267 14.7 17.8253 14.624 17.528 14.4747Z" fill="black"/>
</svg>
