<svg width="16" height="14" viewBox="0 0 16 14" fill="#000" xmlns="http://www.w3.org/2000/svg">
<path fill-rule="evenodd" clip-rule="evenodd" d="M15.0908 3.57361C15.021 3.47229 14.9272 3.38947 14.8184 3.33228C14.7095 3.27509 14.5884 3.24518 14.4653 3.24512H4.06006L3.18164 1.13416C3.14307 1.04096 3.09521 0.952335 3.03955 0.869388C2.9292 0.704898 2.78711 0.562747 2.62109 0.451785C2.37109 0.284915 2.07666 0.19617 1.77637 0.19678H0V1.72095H1.77637L5.3877 10.3973C5.4458 10.5361 5.54346 10.6547 5.66846 10.7381C5.79346 10.8215 5.94043 10.866 6.09082 10.866H12.1812C12.4985 10.866 12.7827 10.6686 12.8945 10.3722L15.1787 4.27545C15.2217 4.1601 15.2363 4.03601 15.2212 3.91376C15.2148 3.86267 15.2031 3.81256 15.187 3.7641C15.1641 3.69666 15.1318 3.63251 15.0908 3.57361ZM11.6538 9.34186H6.59863L4.69531 4.76929H13.3667L11.6538 9.34186ZM6.47168 13.9144C7.10205 13.9144 7.61377 13.4026 7.61377 12.7712C7.61377 12.1399 7.10205 11.6281 6.47168 11.6281C5.84082 11.6281 5.32959 12.1399 5.32959 12.7712C5.32959 13.4026 5.84082 13.9144 6.47168 13.9144ZM12.9429 12.7712C12.9429 13.4026 12.4312 13.9144 11.8008 13.9144C11.1699 13.9144 10.6587 13.4026 10.6587 12.7712C10.6587 12.1399 11.1699 11.6281 11.8008 11.6281C12.4312 11.6281 12.9429 12.1399 12.9429 12.7712Z" fill="#000"/>
</svg>
