<svg width="15" height="17" viewBox="0 0 15 17" fill="none" xmlns="http://www.w3.org/2000/svg">
<path d="M3.05331 0.822327C1.58395 0.822327 0.388672 2.0188 0.388672 3.48963C0.388672 4.69373 1.19568 5.70197 2.29198 6.03272V11.4893C2.29122 11.6257 2.31254 12.8465 3.18578 13.7229C3.7248 14.2655 4.44653 14.5399 5.32967 14.5399V16.0641L8.37497 13.7778L5.32967 11.4915V13.0157C3.94177 13.0157 3.8192 11.8467 3.81463 11.4915V6.03272C4.91094 5.70197 5.71794 4.69373 5.71794 3.48963C5.71794 2.0188 4.5219 0.822327 3.05331 0.822327ZM3.05331 4.63276C2.42369 4.63276 1.91132 4.11988 1.91132 3.48963C1.91132 2.85939 2.42369 2.3465 3.05331 2.3465C3.68292 2.3465 4.1953 2.85939 4.1953 3.48963C4.1953 4.11988 3.68292 4.63276 3.05331 4.63276ZM12.9505 10.8537V5.39256C12.9467 4.16865 12.1306 2.3465 9.89762 2.3465V0.822327L6.85232 3.10859L9.89762 5.39485V3.87068C11.2901 3.87068 11.421 5.04353 11.4279 5.39485V10.8537C10.3316 11.1844 9.52457 12.1927 9.52457 13.3968C9.52457 14.8676 10.7198 16.0641 12.1892 16.0641C13.6586 16.0641 14.8538 14.8676 14.8538 13.3968C14.8538 12.1927 14.0468 11.1844 12.9505 10.8537ZM12.1892 14.5399C11.5596 14.5399 11.0472 14.027 11.0472 13.3968C11.0472 12.7665 11.5596 12.2536 12.1892 12.2536C12.8188 12.2536 13.3312 12.7665 13.3312 13.3968C13.3312 14.027 12.8188 14.5399 12.1892 14.5399Z" fill="#E0E0E0"/>
</svg>
