<svg width="16" height="17" viewBox="0 0 16 17" fill="none" xmlns="http://www.w3.org/2000/svg">
<path d="M3.54745 0.840149C2.07809 0.840149 0.882812 2.03663 0.882812 3.50745C0.882812 4.71155 1.68982 5.71979 2.78612 6.05054V11.5071C2.78536 11.6435 2.80668 12.8644 3.67992 13.7408C4.21894 14.2834 4.94067 14.5577 5.82381 14.5577V16.0819L8.86911 13.7956L5.82381 11.5094V13.0335C4.43591 13.0335 4.31334 11.8645 4.30877 11.5094V6.05054C5.40508 5.71979 6.21209 4.71155 6.21209 3.50745C6.21209 2.03663 5.01604 0.840149 3.54745 0.840149ZM3.54745 4.65059C2.91783 4.65059 2.40546 4.1377 2.40546 3.50745C2.40546 2.87721 2.91783 2.36432 3.54745 2.36432C4.17706 2.36432 4.68944 2.87721 4.68944 3.50745C4.68944 4.1377 4.17706 4.65059 3.54745 4.65059ZM13.4447 10.8715V5.41039C13.4409 4.18647 12.6247 2.36432 10.3918 2.36432V0.840149L7.34646 3.12641L10.3918 5.41267V3.8885C11.7842 3.8885 11.9152 5.06135 11.922 5.41267V10.8715C10.8257 11.2022 10.0187 12.2105 10.0187 13.4146C10.0187 14.8854 11.214 16.0819 12.6833 16.0819C14.1527 16.0819 15.348 14.8854 15.348 13.4146C15.348 12.2105 14.541 11.2022 13.4447 10.8715ZM12.6833 14.5577C12.0537 14.5577 11.5414 14.0448 11.5414 13.4146C11.5414 12.7843 12.0537 12.2715 12.6833 12.2715C13.313 12.2715 13.8253 12.7843 13.8253 13.4146C13.8253 14.0448 13.313 14.5577 12.6833 14.5577Z" fill="#E0E0E0"/>
</svg>
