<svg width="15" height="15" viewBox="0 0 15 15" fill="none" xmlns="http://www.w3.org/2000/svg">
<path fill-rule="evenodd" clip-rule="evenodd" d="M11.3794 14.8036C11.2051 14.8757 11.0181 14.9122 10.8296 14.9112C8.09963 14.8466 5.49416 13.7547 3.53273 11.853C1.63283 9.88952 0.542011 7.28155 0.477558 4.54889C0.476582 4.35998 0.513203 4.17279 0.58498 3.99817C0.656757 3.82354 0.762714 3.66504 0.896992 3.53186L2.81496 1.59738C2.94826 1.4649 3.12844 1.39056 3.31594 1.39056C3.50393 1.39056 3.68361 1.4649 3.81691 1.59738L6.65871 4.4422C6.69435 4.47821 6.72609 4.51767 6.75295 4.55978V3.4469C9.20461 3.4469 10.5596 4.8034 10.5596 7.25732H9.03713C9.03713 5.69473 8.38381 5.00396 6.86477 4.97223C6.85744 5.14972 6.7842 5.31851 6.65871 5.445L5.52932 6.58294C5.74074 7.37015 6.12697 8.09945 6.65871 8.71655C7.27443 9.25058 8.00344 9.6373 8.79055 9.84738L9.92727 8.71655C10.0601 8.58407 10.2403 8.50973 10.4282 8.50973C10.6157 8.50973 10.7959 8.58407 10.9287 8.71655L13.771 11.5614C13.9033 11.6946 13.9776 11.8749 13.9776 12.0628C13.9776 12.2507 13.9033 12.4309 13.771 12.5642L11.8457 14.4915C11.7124 14.6255 11.5542 14.7316 11.3794 14.8036ZM5.15969 4.95428L3.31935 3.11224L1.89846 4.53467C1.95949 6.89663 2.90236 9.15002 4.54152 10.8502C6.23928 12.4868 8.48732 13.428 10.8438 13.4887L12.2647 12.0663L10.4243 10.2243L9.50783 11.1631C9.42434 11.2462 9.3218 11.3073 9.209 11.3408C9.09621 11.3743 8.97658 11.3792 8.86135 11.3551C7.67434 11.0905 6.57375 10.5275 5.66408 9.71936C4.85793 8.80804 4.29543 7.70691 4.03029 6.51892C4.00881 6.40179 4.01711 6.28119 4.05422 6.16812C4.09133 6.05502 4.15627 5.95312 4.24318 5.87173L5.15969 4.95428ZM14.6875 7.08789H13.2666C13.2891 6.42795 13.1763 5.77038 12.9346 5.15603C12.6924 4.54171 12.3272 3.98373 11.8604 3.51681C11.3941 3.04989 10.8364 2.68399 10.2232 2.44189C9.60939 2.19977 8.95217 2.08661 8.29299 2.10943V0.68704C9.13771 0.668576 9.97756 0.821561 10.7617 1.13669C11.5459 1.45184 12.2583 1.92264 12.8555 2.52072C13.4531 3.11883 13.9234 3.83181 14.2383 4.61673C14.5532 5.40167 14.7061 6.24228 14.6875 7.08789Z" fill="#E0E0E0"/>
</svg>
