<svg width="30" height="27" viewBox="0 0 30 27" fill="none" xmlns="http://www.w3.org/2000/svg">
<path fill-rule="evenodd" clip-rule="evenodd" d="M28.4364 0.880249H0V3.95459H3.4423L8.35133 17.7891C8.6601 18.6861 9.23146 19.4631 9.98707 20.0135C10.7427 20.5639 11.6455 20.8608 12.5719 20.8635H25.4431V17.7891H12.5719C12.2643 17.789 11.9642 17.6915 11.7125 17.51C11.4608 17.3285 11.2696 17.0717 11.165 16.7746L10.4766 14.7148H24.3655C25.0151 14.7138 25.6468 14.4958 26.1651 14.0938C26.6835 13.6917 27.0605 13.1273 27.2391 12.4859L29.9331 2.83246C29.9939 2.6306 30.0136 2.41803 29.9908 2.20802C29.9681 1.99801 29.9034 1.79506 29.8009 1.61187C29.6984 1.42867 29.5602 1.26915 29.3949 1.14327C29.2297 1.01739 29.041 0.927852 28.8405 0.880249C28.7067 0.857869 28.5702 0.857869 28.4364 0.880249ZM24.3206 11.6404H9.35408L6.63017 3.95459H26.4459L24.3206 11.6404ZM12.5 26.8635C13.8807 26.8635 15 25.7442 15 24.3635C15 22.9828 13.8807 21.8635 12.5 21.8635C11.1193 21.8635 10 22.9828 10 24.3635C10 25.7442 11.1193 26.8635 12.5 26.8635ZM25 24.3635C25 25.7442 23.8807 26.8635 22.5 26.8635C21.1193 26.8635 20 25.7442 20 24.3635C20 22.9828 21.1193 21.8635 22.5 21.8635C23.8807 21.8635 25 22.9828 25 24.3635Z" fill="black"/>
</svg>
