<svg width="25" height="28" viewBox="0 0 25 28" fill="none" xmlns="http://www.w3.org/2000/svg">
<path d="M12.1735 0.516712C11.3978 0.521314 10.62 0.569634 9.83542 0.668576C8.33523 0.859556 6.84838 1.17709 5.42153 1.85587C3.15236 2.93503 1.54327 4.7666 1.07655 7.42881C0.878744 8.55168 0.718724 9.69066 0.627602 10.8365C0.452024 13.0616 0.560926 15.2935 1.16989 17.4863C1.64995 19.2144 2.53451 20.7675 4.08359 21.7753C4.73923 22.201 5.60378 22.4081 6.05495 22.6244C6.18163 22.6865 6.21274 22.7233 6.21941 22.7325C6.22608 22.7394 6.24386 22.7555 6.24163 22.8936C6.22608 24.3018 6.24163 27.0261 6.24163 27.0261L6.24386 27.6129H7.25954L7.424 27.4472C7.424 27.4472 10.0043 24.877 10.9378 23.8186C11.1067 23.6299 11.1934 23.5241 11.2111 23.5126C11.2267 23.5011 11.2 23.4942 11.3734 23.4896C12.598 23.4642 13.8204 23.4159 15.0427 23.3469C16.654 23.2549 18.2965 23.0961 19.8767 22.4127C21.2524 21.8168 22.4014 20.8434 23.0971 19.3846C23.8083 17.889 24.1883 16.3036 24.3306 14.6631C24.5661 11.9318 24.4839 9.19596 23.7549 6.49922C23.326 4.91846 22.4637 3.5816 21.1413 2.6382C19.5588 1.51073 17.7742 1.08735 16.0273 0.818138C15.0072 0.661673 13.9804 0.558129 12.9491 0.525916C12.6913 0.519013 12.4335 0.514411 12.1735 0.516712ZM12.918 1.70401C13.8981 1.73162 14.8783 1.83056 15.8606 1.98243C17.5453 2.24244 19.1344 2.6382 20.4967 3.60921C21.6013 4.39614 22.2903 5.45919 22.6592 6.81446C23.3393 9.33631 23.426 11.9203 23.1971 14.5595C23.066 16.0804 22.717 17.5139 22.0747 18.8646C21.508 20.0565 20.6234 20.8135 19.4366 21.3266C18.0587 21.9226 16.5607 22.0814 14.9827 22.1711C13.7737 22.2401 12.5624 22.2862 11.3512 22.3115C11.0467 22.3184 10.7489 22.4012 10.5377 22.5623C10.3266 22.7233 10.231 22.8729 10.0999 23.0202C9.43314 23.7749 8.10409 25.1025 7.37955 25.8296C7.37511 24.9507 7.36844 23.8876 7.37955 22.9074C7.384 22.606 7.31732 22.2977 7.15064 22.0538C6.98395 21.8099 6.75503 21.6626 6.535 21.5567C5.8927 21.2484 5.0526 21.0137 4.68811 20.7767C3.41462 19.9484 2.6923 18.7058 2.26336 17.1596C1.70107 15.137 1.59439 13.0547 1.76108 10.9355C1.84998 9.83562 2.00333 8.73346 2.19669 7.6405C2.60118 5.33724 3.87245 3.88763 5.89493 2.92582C7.17286 2.31837 8.53748 2.01924 9.97543 1.83747C10.9556 1.71321 11.9357 1.6741 12.918 1.70401ZM13.1581 4.64004C12.6891 4.64004 12.2335 4.69527 11.7912 4.79651C11.4867 4.87014 11.2934 5.18537 11.3623 5.5029C11.4312 5.82044 11.7379 6.01832 12.0446 5.94699C12.4024 5.86186 12.7758 5.81814 13.1581 5.81814C15.9362 5.81814 18.1765 8.13751 18.1765 11.0114C18.1765 11.4095 18.1342 11.796 18.052 12.1688C17.9831 12.484 18.1742 12.8016 18.4809 12.8729C18.7876 12.9442 19.0921 12.744 19.161 12.4265C19.261 11.9709 19.3144 11.4992 19.3144 11.0114C19.3144 7.50014 16.5518 4.64004 13.1581 4.64004ZM7.48179 5.82044C7.38844 5.81584 7.29288 5.82274 7.19286 5.84575C6.1594 6.08275 5.13261 6.85817 5.10372 8.24335C5.13261 8.43664 5.13039 8.64372 5.19928 8.8186C5.5371 9.67456 5.83047 10.5581 6.25275 11.3681C8.30856 15.3027 11.4178 18.0386 15.3806 19.7758C15.8539 19.9829 16.3429 20.0266 16.8207 19.8195C17.4786 19.5365 18.0364 19.0993 18.4076 18.4711C18.9165 17.6083 18.9232 17.01 18.0853 16.3727C17.5364 15.9539 16.9963 15.5236 16.4407 15.114C15.5939 14.4928 14.6782 14.3846 14.0471 15.4753C14.0137 15.5305 13.9648 15.5765 13.9226 15.6226C13.5981 15.9792 13.2003 16.0666 12.778 15.8872C11.1756 15.2038 9.93765 14.1016 9.19089 12.461C8.75084 11.4969 8.87085 11.0137 9.69318 10.3717C9.77541 10.3096 9.8532 10.2429 9.92876 10.1716C10.2888 9.83102 10.3844 9.42605 10.171 8.96816C9.68873 7.92352 9.04643 6.99163 8.23299 6.18859C8.01297 5.9723 7.76182 5.83654 7.48179 5.82044ZM13.1492 6.40718C12.898 6.40718 12.6491 6.42789 12.4046 6.47161C12.1979 6.49922 12.0224 6.64188 11.9468 6.84207C11.8712 7.04455 11.909 7.27235 12.0424 7.43802C12.1779 7.60139 12.3913 7.67732 12.5958 7.6313C12.7736 7.60139 12.9603 7.58528 13.1492 7.58528C14.9983 7.58528 16.4829 9.12233 16.4829 11.0367C16.4829 11.2323 16.4674 11.4256 16.4385 11.6097C16.394 11.8214 16.4674 12.0423 16.6252 12.1826C16.7852 12.3207 17.0052 12.3598 17.2008 12.2816C17.3941 12.2033 17.5319 12.0215 17.5586 11.8076C17.6008 11.5544 17.6208 11.2967 17.6208 11.0367C17.6208 8.48726 15.6117 6.40718 13.1492 6.40718ZM13.0692 8.17433C12.8647 8.17203 12.6735 8.28247 12.5691 8.46655C12.4669 8.65063 12.4669 8.87612 12.5691 9.0602C12.6735 9.24428 12.8647 9.35472 13.0692 9.35242C14.0182 9.35242 14.776 10.1371 14.776 11.1196C14.7738 11.3313 14.8805 11.5291 15.0583 11.6373C15.2361 11.7431 15.4539 11.7431 15.6317 11.6373C15.8095 11.5291 15.9162 11.3313 15.914 11.1196C15.914 9.49968 14.6338 8.17433 13.0692 8.17433Z" fill="black"/>
</svg>
