<svg width="16" height="14" viewBox="0 0 16 14" fill="none" xmlns="http://www.w3.org/2000/svg">
<path d="M7.6133 1.18733C6.78376 0.4238 5.69796 3.54779e-05 4.57104 0C3.97457 0.000621636 3.38412 0.119312 2.83365 0.349241C2.28318 0.579169 1.78358 0.915796 1.36358 1.33975C-0.427817 3.14056 -0.427056 5.95724 1.3651 7.75043L6.94714 13.3381C7.07656 13.5659 7.32628 13.713 7.6133 13.713C7.73115 13.7119 7.84709 13.6831 7.95181 13.6289C8.05653 13.5748 8.1471 13.4968 8.21626 13.4013L13.8615 7.75043C15.6536 5.95648 15.6536 3.14056 13.86 1.3367C13.4402 0.913527 12.941 0.577584 12.391 0.348185C11.8411 0.118786 11.2513 0.000456953 10.6555 0C9.52866 0.000184394 8.44291 0.423928 7.6133 1.18733ZM12.7835 2.41429C13.9734 3.61153 13.9742 5.4817 12.785 6.67284L7.6133 11.8497L2.44162 6.67284C1.25243 5.4817 1.25319 3.61153 2.44009 2.41734C3.0187 1.8412 3.77546 1.52418 4.57104 1.52418C5.36663 1.52418 6.12034 1.8412 6.69438 2.41582L7.07504 2.79686C7.14568 2.86769 7.22958 2.92389 7.32194 2.96223C7.4143 3.00057 7.51331 3.02031 7.6133 3.02031C7.71328 3.02031 7.81229 3.00057 7.90465 2.96223C7.99701 2.92389 8.08091 2.86769 8.15155 2.79686L8.53221 2.41582C9.68334 1.26583 11.6339 1.26888 12.7835 2.41429Z" fill="#D01010"/>
</svg>
