<svg width="28" height="28" viewBox="0 0 28 28" fill="none" xmlns="http://www.w3.org/2000/svg">
<path d="M13.9998 0.0863342C6.64784 0.0863342 0.666504 6.1584 0.666504 13.6219C0.666504 21.0854 6.64784 27.1575 13.9998 27.1575C21.3518 27.1575 27.3332 21.0854 27.3332 13.6219C27.3332 6.1584 21.3518 0.0863342 13.9998 0.0863342ZM24.5745 12.2684H20.8892C20.7247 9.30576 19.9082 6.41824 18.4998 3.8181C20.1321 4.5924 21.545 5.77317 22.6071 7.2506C23.6691 8.72803 24.3459 10.4541 24.5745 12.2684ZM14.7065 2.83C16.0865 4.67625 17.9425 7.94645 18.2092 12.2684H10.0398C10.2252 8.75453 11.3652 5.46267 13.3078 2.82864C13.5372 2.81511 13.7665 2.79345 13.9998 2.79345C14.2385 2.79345 14.4718 2.81511 14.7065 2.83ZM9.58384 3.77749C8.27184 6.33707 7.5145 9.2391 7.37317 12.2684H3.42517C3.65553 10.4381 4.34202 8.69781 5.41969 7.21203C6.49737 5.72625 7.93061 4.54413 9.58384 3.77749ZM3.42517 14.9755H7.3905C7.57184 18.1956 8.27717 21.0367 9.46517 23.4082C7.84143 22.6311 6.43681 21.4511 5.38112 19.9773C4.32542 18.5034 3.65272 16.7831 3.42517 14.9755ZM13.2665 24.4138C11.3985 22.1155 10.2958 18.8954 10.0545 14.9755H18.2052C17.9278 18.7289 16.7158 22.0086 14.7345 24.4125C14.4918 24.4287 14.2492 24.4504 13.9998 24.4504C13.7518 24.4504 13.5105 24.4287 13.2665 24.4138ZM18.6145 23.3689C19.8878 20.9406 20.6652 18.0887 20.8692 14.9755H24.5732C24.3482 16.768 23.6851 18.4749 22.6444 19.9408C21.6037 21.4068 20.2184 22.5852 18.6145 23.3689Z" fill="black"/>
</svg>
